<?xml version="1.0" encoding="UTF-8" standalone="no"?>
<svg
   width="382"
   height="406"
   viewBox="0 0 382 406"
   fill="none"
   version="1.1"
   id="svg351"
   sodipodi:docname="highschool.svg"
   inkscape:version="1.3.2 (091e20e, 2023-11-25, custom)"
   xmlns:inkscape="http://www.inkscape.org/namespaces/inkscape"
   xmlns:sodipodi="http://sodipodi.sourceforge.net/DTD/sodipodi-0.dtd"
   xmlns="http://www.w3.org/2000/svg"
   xmlns:svg="http://www.w3.org/2000/svg">
  <defs
     id="defs351" />
  <sodipodi:namedview
     id="namedview351"
     pagecolor="#ffffff"
     bordercolor="#000000"
     borderopacity="0.25"
     inkscape:showpageshadow="2"
     inkscape:pageopacity="0.0"
     inkscape:pagecheckerboard="0"
     inkscape:deskcolor="#d1d1d1"
     showgrid="false"
     inkscape:zoom="2.0221675"
     inkscape:cx="190.88429"
     inkscape:cy="84.315469"
     inkscape:window-width="1920"
     inkscape:window-height="1017"
     inkscape:window-x="-8"
     inkscape:window-y="-8"
     inkscape:window-maximized="1"
     inkscape:current-layer="svg351" />
  <path
     d="M220.581 132.588C225.253 132.588 341.809 131.731 374.682 131.731C376.983 131.731 374.071 127.539 372.806 127.241C368.762 126.309 364.541 126.262 360.418 125.815C356.367 125.42 352.397 124.383 348.64 122.741C345.402 121.307 342.172 119.639 338.659 119.015C331.881 117.897 325.934 121.81 319.572 123.477C317.641 124.065 315.614 124.22 313.622 123.933C311.63 123.646 309.717 122.922 308.007 121.81C305.069 119.946 302.397 117.729 299.326 116.09C293.447 113.039 287.033 111.3 280.486 110.979C273.939 110.658 267.399 111.764 261.277 114.227C258.359 115.408 255.568 116.91 252.95 118.707C249.844 120.859 247.163 123.598 244.048 125.722C237.146 130.38 228.616 128.889 221.086 131.582C220.643 131.768 220.174 132.588 220.581 132.588Z"
     fill="#EBEBEB"
     id="path1" />
  <path
     d="M213.883 22.6537C220.077 22.6537 323.943 23.371 330.474 23.1567C330.943 23.1567 331.19 22.4115 330.73 22.1693C326.607 20.0267 321.943 20.4552 317.67 18.9367C315.148 18.0052 313.599 16.3097 311.856 14.2789C310.412 12.5386 308.542 11.2495 306.449 10.5526C304.538 9.94814 302.509 9.8807 300.565 10.357C298.459 10.888 296.627 12.1549 294.619 12.9561C289.628 14.9403 284.779 13.0585 281.213 9.17389C278.275 5.9693 275.381 2.9417 271.391 1.2183C269.759 0.441229 267.993 0.0269148 266.202 0.00126825C264.412 -0.0243783 262.636 0.339195 260.985 1.06925C257.171 2.88581 254.56 6.53756 250.977 8.73606C246.738 11.3444 241.659 10.7296 236.978 11.5308C232.297 12.3319 228.696 16.4774 224.59 18.8715C223.25 19.7765 221.703 20.282 220.112 20.3341C219.227 20.3341 218.289 20.0453 217.387 19.9242C215.971 19.7379 214.626 19.7845 213.67 21.0234C213.431 21.3681 213.485 22.6537 213.883 22.6537Z"
     fill="#EBEBEB"
     id="path2" />
  <path
     d="M5.98181 79.4886C10.4858 79.4886 86.3283 80.0196 91.0978 79.8519C91.434 79.8519 91.6199 79.3116 91.2836 79.1346C88.275 77.5695 84.8683 77.8863 81.7447 76.7777C79.9041 76.1256 78.7803 74.8587 77.5061 73.4147C76.4486 72.1488 75.0847 71.2086 73.5596 70.6946C72.1623 70.253 70.6796 70.2048 69.2591 70.5548C67.775 71.0789 66.3239 71.7012 64.9144 72.418C61.2775 73.8619 57.738 72.4925 55.1365 69.6233C52.9863 67.285 50.8803 65.0772 47.9602 63.8196C46.7702 63.2515 45.4816 62.9483 44.1752 62.9291C42.8687 62.9098 41.5726 63.175 40.368 63.7078C37.5806 65.0306 35.6693 67.7042 33.0589 69.2972C29.9619 71.2069 26.2543 70.7504 22.8386 71.328C19.423 71.9056 16.7861 74.9332 13.7864 76.6845C12.808 77.3475 11.6755 77.7148 10.5124 77.7465C9.84871 77.7465 9.18505 77.5416 8.5214 77.4577C8.04366 77.3174 7.53847 77.3179 7.06098 77.4592C6.58348 77.6004 6.15202 77.8771 5.81368 78.2589C5.6898 78.557 5.6898 79.4886 5.98181 79.4886Z"
     fill="#EBEBEB"
     id="path3" />
  <path
     d="M287.832 81.566C292.344 81.566 368.187 82.097 372.948 81.9294C373.293 81.9294 373.478 81.389 373.133 81.212C370.134 79.647 366.727 79.9637 363.603 78.8552C361.763 78.2031 360.639 76.9361 359.365 75.4922C358.307 74.2263 356.943 73.2861 355.418 72.772C354.021 72.3305 352.538 72.2823 351.118 72.6323C349.634 73.1564 348.183 73.7787 346.773 74.4954C343.127 75.9394 339.588 74.57 336.986 71.7007C334.845 69.3625 332.73 67.1547 329.819 65.8971C328.627 65.3287 327.337 65.0255 326.029 65.0062C324.721 64.987 323.424 65.2522 322.218 65.7853C319.439 67.1081 317.528 69.7817 314.918 71.3747C311.82 73.2378 308.113 72.8279 304.688 73.4055C301.264 73.9831 298.645 77.0107 295.645 78.762C294.678 79.4435 293.551 79.8333 292.389 79.8892C291.72 79.8271 291.056 79.7276 290.398 79.5911C289.919 79.4529 289.414 79.4554 288.936 79.5983C288.459 79.7412 288.028 80.019 287.69 80.4016C287.504 80.6252 287.54 81.566 287.832 81.566Z"
     fill="#EBEBEB"
     id="path4" />
  <path
     d="M80.2669 159.277C84.7798 159.277 160.622 159.808 165.392 159.641C165.728 159.641 165.914 159.1 165.578 158.923C162.569 157.358 159.162 157.675 156.039 156.566C154.198 155.914 153.074 154.647 151.8 153.204C150.743 151.938 149.379 150.997 147.854 150.483C146.456 150.042 144.974 149.994 143.553 150.344C142.069 150.868 140.618 151.49 139.208 152.207C135.572 153.651 132.023 152.281 129.475 149.412C127.325 147.074 125.219 144.866 122.298 143.608C121.107 143.04 119.817 142.737 118.509 142.718C117.201 142.698 115.903 142.964 114.697 143.497C111.919 144.819 110.008 147.493 107.397 149.086C104.3 150.949 100.592 150.539 97.1769 151.117C93.7613 151.694 91.1243 154.722 88.1246 156.473C87.1462 157.136 86.0137 157.504 84.8506 157.535C84.1825 157.473 83.5179 157.373 82.8596 157.237C82.381 157.1 81.8758 157.103 81.3987 157.246C80.9215 157.389 80.4904 157.666 80.1519 158.048C79.9395 158.346 80.0192 159.277 80.2669 159.277Z"
     fill="#EBEBEB"
     id="path5" />
  <path
     d="M46.8895 114.404C46.9779 114.674 166.436 114.404 164.923 114.404C164.241 114.404 165.967 113.323 165.294 112.969C161.41 110.938 157.154 110.883 152.906 110.473C150.4 110.36 147.94 109.727 145.668 108.609C143.42 107.37 142.013 105.209 140.421 103.225C137.959 100.154 134.794 97.7954 131.225 96.3707C127.656 94.9461 123.801 94.5029 120.024 95.0831C111.529 96.4898 104.831 103.3 96.3273 104.548C91.2128 105.302 86.3814 103.225 81.3818 102.489C77.5185 101.929 73.5864 102.687 70.1616 104.65C67.507 106.057 64.9763 107.24 61.9323 107.445C59.5962 107.613 57.2513 107.333 54.9064 107.305C51.0851 107.406 47.4296 108.969 44.6242 111.702C44.1994 112.047 42.996 114.404 46.8895 114.404Z"
     fill="#EBEBEB"
     id="path6" />
  <path
     d="M252.499 123.664H128.758V305.431H252.499V123.664Z"
     fill="#FFC727"
     id="path7" />
  <path
     opacity="0.7"
     d="M252.499 123.664H128.758V305.431H252.499V123.664Z"
     fill="white"
     id="path8" />
  <path
     d="M234.801 243.882H146.455V248.568H234.801V243.882Z"
     fill="#FFC727"
     id="path9" />
  <path
     d="M217.67 248.568H163.64V301.714H217.67V248.568Z"
     fill="#455A64"
     id="path10" />
  <path
     d="M214.033 252.49H167.276V301.714H214.033V252.49Z"
     fill="#37474F"
     id="path11" />
  <g
     opacity="0.5"
     id="g18">
    <path
       d="M214.033 273.031V282.17L195.477 301.714H186.797L214.033 273.031Z"
       fill="#455A64"
       id="path12" />
    <path
       d="M179.488 252.49L167.285 265.336V256.198L170.798 252.49H179.488Z"
       fill="#455A64"
       id="path13" />
    <path
       d="M205.574 252.49L167.285 292.808V288.244L201.238 252.49H205.574Z"
       fill="#455A64"
       id="path14" />
    <path
       d="M214.033 286.921V291.495L204.326 301.714H199.981L214.033 286.921Z"
       fill="#455A64"
       id="path15" />
    <path
       d="M214.033 257.064V257.893L172.426 301.714H171.612L214.033 257.064Z"
       fill="#455A64"
       id="path16" />
    <path
       d="M184.549 252.49L167.285 270.665V269.817L183.744 252.49H184.549Z"
       fill="#455A64"
       id="path17" />
    <path
       d="M199.273 252.49L167.285 286.166V285.309L198.459 252.49H199.273Z"
       fill="#455A64"
       id="path18" />
  </g>
  <path
     d="M192.168 252.49H189.159V301.714H192.168V252.49Z"
     fill="#455A64"
     id="path19" />
  <path
     d="M167.356 143.487H148.066V174.965H167.356V143.487Z"
     fill="#455A64"
     id="path20" />
  <path
     d="M165.374 145.798H150.057V172.664H165.374V145.798Z"
     fill="#37474F"
     id="path21" />
  <path
     d="M170.117 174.965H145.305V179.492H170.117V174.965Z"
     fill="#FFC727"
     id="path22" />
  <g
     opacity="0.5"
     id="g26">
    <path
       d="M165.374 145.798V149.114L150.048 165.249V159.11L162.702 145.798H165.374Z"
       fill="#455A64"
       id="path23" />
    <path
       d="M165.374 165.715V168.779L161.684 172.664H158.773L165.374 165.715Z"
       fill="#455A64"
       id="path24" />
    <path
       d="M155.207 145.798L150.048 151.229V148.154L152.287 145.798H155.207Z"
       fill="#455A64"
       id="path25" />
    <path
       d="M165.374 160.908V161.895L155.136 172.664H154.198L165.374 160.908Z"
       fill="#455A64"
       id="path26" />
  </g>
  <path
     d="M167.356 161.597H148.066V163.898H167.356V161.597Z"
     fill="#455A64"
     id="path27" />
  <path
     d="M200.273 143.487H180.983V174.965H200.273V143.487Z"
     fill="#455A64"
     id="path28" />
  <path
     d="M198.291 145.798H182.974V172.664H198.291V145.798Z"
     fill="#37474F"
     id="path29" />
  <path
     d="M203.034 174.965H178.222V179.492H203.034V174.965Z"
     fill="#FFC727"
     id="path30" />
  <g
     opacity="0.5"
     id="g34">
    <path
       d="M198.291 145.798V149.114L182.965 165.249V159.11L195.619 145.798H198.291Z"
       fill="#455A64"
       id="path31" />
    <path
       d="M198.291 165.715V168.779L194.601 172.664H191.681L198.291 165.715Z"
       fill="#455A64"
       id="path32" />
    <path
       d="M188.124 145.798L182.965 151.229V148.154L185.204 145.798H188.124Z"
       fill="#455A64"
       id="path33" />
    <path
       d="M198.291 160.908V161.895L188.053 172.664H187.115L198.291 160.908Z"
       fill="#455A64"
       id="path34" />
  </g>
  <path
     d="M200.273 161.597H180.983V163.898H200.273V161.597Z"
     fill="#455A64"
     id="path35" />
  <path
     d="M233.191 143.487H213.9V174.965H233.191V143.487Z"
     fill="#455A64"
     id="path36" />
  <path
     d="M231.209 145.798H215.891V172.664H231.209V145.798Z"
     fill="#37474F"
     id="path37" />
  <path
     d="M235.951 174.965H211.14V179.492H235.951V174.965Z"
     fill="#FFC727"
     id="path38" />
  <g
     opacity="0.5"
     id="g42">
    <path
       d="M231.209 145.798V149.114L215.883 165.249V159.11L228.536 145.798H231.209Z"
       fill="#455A64"
       id="path39" />
    <path
       d="M231.209 165.715V168.779L227.519 172.664H224.607L231.209 165.715Z"
       fill="#455A64"
       id="path40" />
    <path
       d="M221.041 145.798L215.883 151.229V148.154L218.121 145.798H221.041Z"
       fill="#455A64"
       id="path41" />
    <path
       d="M231.209 160.908V161.895L220.971 172.664H220.033L231.209 160.908Z"
       fill="#455A64"
       id="path42" />
  </g>
  <path
     d="M233.191 161.597H213.9V163.898H233.191V161.597Z"
     fill="#455A64"
     id="path43" />
  <path
     d="M167.356 191.025H148.066V222.503H167.356V191.025Z"
     fill="#455A64"
     id="path44" />
  <path
     d="M165.374 193.326H150.057V220.193H165.374V193.326Z"
     fill="#37474F"
     id="path45" />
  <path
     d="M170.117 222.503H145.305V227.03H170.117V222.503Z"
     fill="#FFC727"
     id="path46" />
  <g
     opacity="0.5"
     id="g50">
    <path
       d="M165.374 193.326V196.652L150.048 212.777V206.648L162.702 193.326H165.374Z"
       fill="#455A64"
       id="path47" />
    <path
       d="M165.374 213.243V216.317L161.684 220.202H158.773L165.374 213.243Z"
       fill="#455A64"
       id="path48" />
    <path
       d="M155.207 193.326L150.048 198.757V195.692L152.287 193.326H155.207Z"
       fill="#455A64"
       id="path49" />
    <path
       d="M165.374 208.436V209.424L155.136 220.202H154.198L165.374 208.436Z"
       fill="#455A64"
       id="path50" />
  </g>
  <path
     d="M167.356 209.135H148.066V211.436H167.356V209.135Z"
     fill="#455A64"
     id="path51" />
  <path
     d="M200.273 191.025H180.983V222.503H200.273V191.025Z"
     fill="#455A64"
     id="path52" />
  <path
     d="M198.291 193.326H182.974V220.193H198.291V193.326Z"
     fill="#37474F"
     id="path53" />
  <path
     d="M203.034 222.503H178.222V227.03H203.034V222.503Z"
     fill="#FFC727"
     id="path54" />
  <g
     opacity="0.5"
     id="g58">
    <path
       d="M198.291 193.326V196.652L182.965 212.777V206.648L195.619 193.326H198.291Z"
       fill="#455A64"
       id="path55" />
    <path
       d="M198.291 213.243V216.317L194.601 220.202H191.681L198.291 213.243Z"
       fill="#455A64"
       id="path56" />
    <path
       d="M188.124 193.326L182.965 198.757V195.692L185.204 193.326H188.124Z"
       fill="#455A64"
       id="path57" />
    <path
       d="M198.291 208.436V209.424L188.053 220.202H187.115L198.291 208.436Z"
       fill="#455A64"
       id="path58" />
  </g>
  <path
     d="M200.273 209.135H180.983V211.436H200.273V209.135Z"
     fill="#455A64"
     id="path59" />
  <path
     d="M233.191 191.025H213.9V222.503H233.191V191.025Z"
     fill="#455A64"
     id="path60" />
  <path
     d="M231.209 193.326H215.891V220.193H231.209V193.326Z"
     fill="#37474F"
     id="path61" />
  <path
     d="M235.951 222.503H211.14V227.03H235.951V222.503Z"
     fill="#FFC727"
     id="path62" />
  <g
     opacity="0.5"
     id="g66">
    <path
       d="M231.209 193.326V196.652L215.883 212.777V206.648L228.536 193.326H231.209Z"
       fill="#455A64"
       id="path63" />
    <path
       d="M231.209 213.243V216.317L227.519 220.202H224.607L231.209 213.243Z"
       fill="#455A64"
       id="path64" />
    <path
       d="M221.041 193.326L215.883 198.757V195.692L218.121 193.326H221.041Z"
       fill="#455A64"
       id="path65" />
    <path
       d="M231.209 208.436V209.424L220.971 220.202H220.033L231.209 208.436Z"
       fill="#455A64"
       id="path66" />
  </g>
  <path
     d="M233.191 209.135H213.9V211.436H233.191V209.135Z"
     fill="#455A64"
     id="path67" />
  <path
     opacity="0.5"
     d="M252.499 234.455H128.758V236.048L252.499 235.247V234.455Z"
     fill="#FFC727"
     id="path68" />
  <path
     d="M252.499 232.238H128.758V234.455H252.499V232.238Z"
     fill="white"
     id="path69" />
  <path
     opacity="0.5"
     d="M252.499 185.473H128.758V187.075L252.499 186.274V185.473Z"
     fill="#FFC727"
     id="path70" />
  <path
     d="M252.499 183.256H128.758V185.473H252.499V183.256Z"
     fill="white"
     id="path71" />
  <path
     opacity="0.5"
     d="M252.499 136.501H128.758V138.103L252.499 137.302V136.501Z"
     fill="#FFC727"
     id="path72" />
  <path
     d="M252.499 134.283H128.758V136.501H252.499V134.283Z"
     fill="white"
     id="path73" />
  <path
     d="M128.758 123.664H123.449V305.431H128.758V123.664Z"
     fill="#FFC727"
     id="path74" />
  <path
     opacity="0.8"
     d="M128.758 123.664H123.449V305.431H128.758V123.664Z"
     fill="white"
     id="path75" />
  <path
     d="M257.808 123.664H252.499V305.431H257.808V123.664Z"
     fill="#FFC727"
     id="path76" />
  <path
     opacity="0.8"
     d="M257.808 123.664H252.499V305.431H257.808V123.664Z"
     fill="white"
     id="path77" />
  <path
     d="M231.058 248.568H226.492V301.714H231.058V248.568Z"
     fill="#FFC727"
     id="path78" />
  <path
     opacity="0.9"
     d="M231.058 248.568H226.492V301.714H231.058V248.568Z"
     fill="white"
     id="path79" />
  <path
     d="M154.764 248.568H150.198V301.714H154.764V248.568Z"
     fill="#FFC727"
     id="path80" />
  <path
     opacity="0.9"
     d="M154.764 248.568H150.198V301.714H154.764V248.568Z"
     fill="white"
     id="path81" />
  <path
     d="M239.942 303.586H141.305V305.459H239.942V303.586Z"
     fill="#EBEBEB"
     id="path82" />
  <path
     d="M235.137 301.714H146.119V303.587H235.137V301.714Z"
     fill="#EBEBEB"
     id="path83" />
  <path
     d="M235.137 303.112L146.119 302.646V303.587H235.137V303.112Z"
     fill="#DBDBDB"
     id="path84" />
  <path
     d="M123.457 174.024H13.3262V305.44H123.457V174.024Z"
     fill="#FFC727"
     id="path85" />
  <path
     opacity="0.7"
     d="M123.457 174.024H13.3262V305.44H123.457V174.024Z"
     fill="white"
     id="path86" />
  <path
     opacity="0.5"
     d="M123.457 285.57H13.3262V305.44H123.457V285.57Z"
     fill="#FFC727"
     id="path87" />
  <path
     d="M45.1108 190.802H25.8206V222.279H45.1108V190.802Z"
     fill="#455A64"
     id="path88" />
  <path
     d="M43.1287 193.103H27.8115V219.969H43.1287V193.103Z"
     fill="#37474F"
     id="path89" />
  <path
     d="M47.8717 222.279H23.0598V226.807H47.8717V222.279Z"
     fill="#FFC727"
     id="path90" />
  <g
     opacity="0.5"
     id="g94">
    <path
       d="M43.1287 193.112V196.428L27.8115 212.563V206.424L40.4564 193.112H43.1287Z"
       fill="#455A64"
       id="path91" />
    <path
       d="M43.1286 213.029V216.094L39.4387 219.978H36.5275L43.1286 213.029Z"
       fill="#455A64"
       id="path92" />
    <path
       d="M32.9703 193.112L27.8115 198.543V195.469L30.0414 193.112H32.9703Z"
       fill="#455A64"
       id="path93" />
    <path
       d="M43.1286 208.222V209.2L32.8995 219.978H31.9615L43.1286 208.222Z"
       fill="#455A64"
       id="path94" />
  </g>
  <path
     d="M45.1108 208.911H25.8206V211.212H45.1108V208.911Z"
     fill="#455A64"
     id="path95" />
  <path
     d="M78.028 190.802H58.7378V222.279H78.028V190.802Z"
     fill="#455A64"
     id="path96" />
  <path
     d="M76.0459 193.103H60.7288V219.969H76.0459V193.103Z"
     fill="#37474F"
     id="path97" />
  <path
     d="M80.7889 222.279H55.9771V226.807H80.7889V222.279Z"
     fill="#FFC727"
     id="path98" />
  <g
     opacity="0.5"
     id="g102">
    <path
       d="M76.0459 193.112V196.428L60.7288 212.563V206.424L73.3736 193.112H76.0459Z"
       fill="#455A64"
       id="path99" />
    <path
       d="M76.046 213.029V216.094L72.3561 219.978H69.4448L76.046 213.029Z"
       fill="#455A64"
       id="path100" />
    <path
       d="M65.8876 193.112L60.7288 198.543V195.469L62.9586 193.112H65.8876Z"
       fill="#455A64"
       id="path101" />
    <path
       d="M76.0459 208.222V209.2L65.8079 219.978H64.8788L76.0459 208.222Z"
       fill="#455A64"
       id="path102" />
  </g>
  <path
     d="M78.028 208.911H58.7378V211.212H78.028V208.911Z"
     fill="#455A64"
     id="path103" />
  <path
     d="M110.945 190.802H91.6552V222.279H110.945V190.802Z"
     fill="#455A64"
     id="path104" />
  <path
     d="M108.963 193.103H93.6461V219.969H108.963V193.103Z"
     fill="#37474F"
     id="path105" />
  <path
     d="M113.706 222.279H88.8944V226.807H113.706V222.279Z"
     fill="#FFC727"
     id="path106" />
  <g
     opacity="0.5"
     id="g110">
    <path
       d="M108.963 193.112V196.428L93.6461 212.563V206.424L106.291 193.112H108.963Z"
       fill="#455A64"
       id="path107" />
    <path
       d="M108.963 213.029V216.094L105.273 219.978H102.362L108.963 213.029Z"
       fill="#455A64"
       id="path108" />
    <path
       d="M98.8049 193.112L93.6461 198.543V195.469L95.8848 193.112H98.8049Z"
       fill="#455A64"
       id="path109" />
    <path
       d="M108.963 208.222V209.2L98.7341 219.978H97.7961L108.963 208.222Z"
       fill="#455A64"
       id="path110" />
  </g>
  <path
     d="M110.945 208.911H91.6552V211.212H110.945V208.911Z"
     fill="#455A64"
     id="path111" />
  <path
     d="M45.1108 238.33H25.8206V269.808H45.1108V238.33Z"
     fill="#455A64"
     id="path112" />
  <path
     d="M43.1287 240.64H27.8115V267.507H43.1287V240.64Z"
     fill="#37474F"
     id="path113" />
  <path
     d="M47.8717 269.817H23.0598V274.345H47.8717V269.817Z"
     fill="#FFC727"
     id="path114" />
  <g
     opacity="0.5"
     id="g118">
    <path
       d="M43.1287 240.64V243.966L27.8115 260.092V253.962L40.4564 240.64H43.1287Z"
       fill="#455A64"
       id="path115" />
    <path
       d="M43.1286 260.557V263.632L39.4387 267.507H36.5275L43.1286 260.557Z"
       fill="#455A64"
       id="path116" />
    <path
       d="M32.9703 240.64L27.8115 246.071V243.007L30.0414 240.64H32.9703Z"
       fill="#455A64"
       id="path117" />
    <path
       d="M43.1286 255.75V256.738L32.8995 267.507H31.9615L43.1286 255.75Z"
       fill="#455A64"
       id="path118" />
  </g>
  <path
     d="M45.1108 256.44H25.8206V258.741H45.1108V256.44Z"
     fill="#455A64"
     id="path119" />
  <path
     d="M78.028 238.33H58.7378V269.808H78.028V238.33Z"
     fill="#455A64"
     id="path120" />
  <path
     d="M76.0459 240.64H60.7288V267.507H76.0459V240.64Z"
     fill="#37474F"
     id="path121" />
  <path
     d="M80.7889 269.817H55.9771V274.345H80.7889V269.817Z"
     fill="#FFC727"
     id="path122" />
  <g
     opacity="0.5"
     id="g126">
    <path
       d="M76.0459 240.64V243.966L60.7288 260.092V253.962L73.3736 240.64H76.0459Z"
       fill="#455A64"
       id="path123" />
    <path
       d="M76.046 260.557V263.632L72.3561 267.507H69.4448L76.046 260.557Z"
       fill="#455A64"
       id="path124" />
    <path
       d="M65.8876 240.64L60.7288 246.071V243.007L62.9586 240.64H65.8876Z"
       fill="#455A64"
       id="path125" />
    <path
       d="M76.0459 255.75V256.738L65.8079 267.507H64.8788L76.0459 255.75Z"
       fill="#455A64"
       id="path126" />
  </g>
  <path
     d="M78.028 256.44H58.7378V258.741H78.028V256.44Z"
     fill="#455A64"
     id="path127" />
  <path
     d="M110.945 238.33H91.6552V269.808H110.945V238.33Z"
     fill="#455A64"
     id="path128" />
  <path
     d="M108.963 240.64H93.6461V267.507H108.963V240.64Z"
     fill="#37474F"
     id="path129" />
  <path
     d="M113.706 269.817H88.8944V274.345H113.706V269.817Z"
     fill="#FFC727"
     id="path130" />
  <g
     opacity="0.5"
     id="g134">
    <path
       d="M108.963 240.64V243.966L93.6461 260.092V253.962L106.291 240.64H108.963Z"
       fill="#455A64"
       id="path131" />
    <path
       d="M108.963 260.557V263.632L105.273 267.507H102.362L108.963 260.557Z"
       fill="#455A64"
       id="path132" />
    <path
       d="M98.8049 240.64L93.6461 246.071V243.007L95.8848 240.64H98.8049Z"
       fill="#455A64"
       id="path133" />
    <path
       d="M108.963 255.75V256.738L98.7341 267.507H97.7961L108.963 255.75Z"
       fill="#455A64"
       id="path134" />
  </g>
  <path
     d="M110.945 256.44H91.6552V258.741H110.945V256.44Z"
     fill="#455A64"
     id="path135" />
  <path
     d="M123.449 167.475H9.56543V174.024H123.449V167.475Z"
     fill="#FFC727"
     id="path136" />
  <path
     opacity="0.5"
     d="M123.449 232.974H13.3262V234.567L123.449 233.765V232.974Z"
     fill="#FFC727"
     id="path137" />
  <path
     d="M123.457 230.757H13.3262V232.974H123.457V230.757Z"
     fill="white"
     id="path138" />
  <path
     opacity="0.5"
     d="M115.37 174.024H123.449V305.44H120.856L115.37 174.024Z"
     fill="#FFC727"
     id="path139" />
  <path
     d="M257.799 305.44H367.93V174.024H257.799V305.44Z"
     fill="#FFC727"
     id="path140" />
  <path
     opacity="0.7"
     d="M257.799 305.44H367.93V174.024H257.799V305.44Z"
     fill="white"
     id="path141" />
  <path
     d="M289.592 190.802H270.302V222.279H289.592V190.802Z"
     fill="#455A64"
     id="path142" />
  <path
     d="M287.61 193.103H272.293V219.969H287.61V193.103Z"
     fill="#37474F"
     id="path143" />
  <path
     d="M292.353 222.279H267.541V226.807H292.353V222.279Z"
     fill="#FFC727"
     id="path144" />
  <g
     opacity="0.5"
     id="g148">
    <path
       d="M287.61 193.112V196.428L272.293 212.563V206.424L284.938 193.112H287.61Z"
       fill="#455A64"
       id="path145" />
    <path
       d="M287.61 213.029V216.094L283.92 219.978H281.009L287.61 213.029Z"
       fill="#455A64"
       id="path146" />
    <path
       d="M277.452 193.112L272.293 198.543V195.469L274.532 193.112H277.452Z"
       fill="#455A64"
       id="path147" />
    <path
       d="M287.61 208.222V209.2L277.381 219.978H276.443L287.61 208.222Z"
       fill="#455A64"
       id="path148" />
  </g>
  <path
     d="M289.592 208.911H270.302V211.212H289.592V208.911Z"
     fill="#455A64"
     id="path149" />
  <path
     d="M322.51 190.802H303.219V222.279H322.51V190.802Z"
     fill="#455A64"
     id="path150" />
  <path
     d="M320.528 193.103H305.21V219.969H320.528V193.103Z"
     fill="#37474F"
     id="path151" />
  <path
     d="M325.271 222.279H300.459V226.807H325.271V222.279Z"
     fill="#FFC727"
     id="path152" />
  <g
     opacity="0.5"
     id="g156">
    <path
       d="M320.528 193.112V196.428L305.21 212.563V206.424L317.855 193.112H320.528Z"
       fill="#455A64"
       id="path153" />
    <path
       d="M320.528 213.029V216.094L316.838 219.978H313.926L320.528 213.029Z"
       fill="#455A64"
       id="path154" />
    <path
       d="M310.369 193.112L305.21 198.543V195.469L307.449 193.112H310.369Z"
       fill="#455A64"
       id="path155" />
    <path
       d="M320.528 208.222V209.2L310.298 219.978H309.36L320.528 208.222Z"
       fill="#455A64"
       id="path156" />
  </g>
  <path
     d="M322.51 208.911H303.219V211.212H322.51V208.911Z"
     fill="#455A64"
     id="path157" />
  <path
     d="M355.427 190.802H336.137V222.279H355.427V190.802Z"
     fill="#455A64"
     id="path158" />
  <path
     d="M353.445 193.103H338.128V219.969H353.445V193.103Z"
     fill="#37474F"
     id="path159" />
  <path
     d="M358.188 222.279H333.376V226.807H358.188V222.279Z"
     fill="#FFC727"
     id="path160" />
  <g
     opacity="0.5"
     id="g164">
    <path
       d="M353.445 193.112V196.428L338.128 212.563V206.424L350.773 193.112H353.445Z"
       fill="#455A64"
       id="path161" />
    <path
       d="M353.445 213.029V216.094L349.755 219.978H346.844L353.445 213.029Z"
       fill="#455A64"
       id="path162" />
    <path
       d="M343.286 193.112L338.128 198.543V195.469L340.366 193.112H343.286Z"
       fill="#455A64"
       id="path163" />
    <path
       d="M353.445 208.222V209.2L343.216 219.978H342.278L353.445 208.222Z"
       fill="#455A64"
       id="path164" />
  </g>
  <path
     d="M355.427 208.911H336.137V211.212H355.427V208.911Z"
     fill="#455A64"
     id="path165" />
  <path
     d="M289.592 238.33H270.302V269.808H289.592V238.33Z"
     fill="#455A64"
     id="path166" />
  <path
     d="M287.61 240.64H272.293V267.507H287.61V240.64Z"
     fill="#37474F"
     id="path167" />
  <path
     d="M292.353 269.817H267.541V274.345H292.353V269.817Z"
     fill="#FFC727"
     id="path168" />
  <g
     opacity="0.5"
     id="g172">
    <path
       d="M287.61 240.64V243.966L272.293 260.092V253.962L284.938 240.64H287.61Z"
       fill="#455A64"
       id="path169" />
    <path
       d="M287.61 260.557V263.632L283.92 267.507H281.009L287.61 260.557Z"
       fill="#455A64"
       id="path170" />
    <path
       d="M277.452 240.64L272.293 246.071V243.007L274.532 240.64H277.452Z"
       fill="#455A64"
       id="path171" />
    <path
       d="M287.61 255.75V256.738L277.381 267.507H276.443L287.61 255.75Z"
       fill="#455A64"
       id="path172" />
  </g>
  <path
     d="M289.592 256.44H270.302V258.741H289.592V256.44Z"
     fill="#455A64"
     id="path173" />
  <path
     d="M322.51 238.33H303.219V269.808H322.51V238.33Z"
     fill="#455A64"
     id="path174" />
  <path
     d="M320.528 240.64H305.21V267.507H320.528V240.64Z"
     fill="#37474F"
     id="path175" />
  <path
     d="M325.271 269.817H300.459V274.345H325.271V269.817Z"
     fill="#FFC727"
     id="path176" />
  <g
     opacity="0.5"
     id="g180">
    <path
       d="M320.528 240.64V243.966L305.21 260.092V253.962L317.855 240.64H320.528Z"
       fill="#455A64"
       id="path177" />
    <path
       d="M320.528 260.557V263.632L316.838 267.507H313.926L320.528 260.557Z"
       fill="#455A64"
       id="path178" />
    <path
       d="M310.369 240.64L305.21 246.071V243.007L307.449 240.64H310.369Z"
       fill="#455A64"
       id="path179" />
    <path
       d="M320.528 255.75V256.738L310.298 267.507H309.36L320.528 255.75Z"
       fill="#455A64"
       id="path180" />
  </g>
  <path
     d="M322.51 256.44H303.219V258.741H322.51V256.44Z"
     fill="#455A64"
     id="path181" />
  <path
     d="M355.427 238.33H336.137V269.808H355.427V238.33Z"
     fill="#455A64"
     id="path182" />
  <path
     d="M353.445 240.64H338.128V267.507H353.445V240.64Z"
     fill="#37474F"
     id="path183" />
  <path
     d="M358.188 269.817H333.376V274.345H358.188V269.817Z"
     fill="#FFC727"
     id="path184" />
  <g
     opacity="0.5"
     id="g188">
    <path
       d="M353.445 240.64V243.966L338.128 260.092V253.962L350.773 240.64H353.445Z"
       fill="#455A64"
       id="path185" />
    <path
       d="M353.445 260.557V263.632L349.755 267.507H346.844L353.445 260.557Z"
       fill="#455A64"
       id="path186" />
    <path
       d="M343.286 240.64L338.128 246.071V243.007L340.366 240.64H343.286Z"
       fill="#455A64"
       id="path187" />
    <path
       d="M353.445 255.75V256.738L343.216 267.507H342.278L353.445 255.75Z"
       fill="#455A64"
       id="path188" />
  </g>
  <path
     d="M355.427 256.44H336.137V258.741H355.427V256.44Z"
     fill="#455A64"
     id="path189" />
  <path
     d="M257.808 174.024L371.691 174.024V167.475L257.808 167.475V174.024Z"
     fill="#FFC727"
     id="path190" />
  <path
     opacity="0.5"
     d="M367.939 285.57H257.808V305.44H367.939V285.57Z"
     fill="#FFC727"
     id="path191" />
  <path
     opacity="0.5"
     d="M367.93 232.974H257.808V234.567L367.93 233.765V232.974Z"
     fill="#FFC727"
     id="path192" />
  <path
     d="M367.939 230.757H257.808V232.974H367.939V230.757Z"
     fill="white"
     id="path193" />
  <path
     opacity="0.5"
     d="M265.887 174.024H257.808V305.44H260.4L265.887 174.024Z"
     fill="#FFC727"
     id="path194" />
  <path
     d="M242.261 105.451H139.005V126.626H242.261V105.451Z"
     fill="#FFC727"
     id="path195" />
  <path
     d="M242.252 124.083H138.996V124.549H242.252V124.083Z"
     fill="white"
     id="path196" />
  <path
     d="M242.252 107.529H138.996V107.995H242.252V107.529Z"
     fill="white"
     id="path197" />
  <path
     d="M149.145 119.853V112.494C149.164 112.324 149.242 112.167 149.363 112.053C149.485 111.939 149.642 111.876 149.805 111.876C149.967 111.876 150.124 111.939 150.246 112.053C150.368 112.167 150.445 112.324 150.464 112.494V115.494H153.543V112.494C153.542 112.403 153.558 112.313 153.591 112.229C153.623 112.144 153.671 112.068 153.732 112.004C153.793 111.939 153.866 111.889 153.946 111.854C154.026 111.82 154.112 111.803 154.198 111.805C154.373 111.804 154.54 111.877 154.664 112.006C154.788 112.135 154.859 112.31 154.862 112.494V119.872C154.862 119.963 154.844 120.054 154.811 120.138C154.778 120.222 154.729 120.299 154.667 120.363C154.605 120.427 154.532 120.477 154.451 120.511C154.371 120.546 154.285 120.562 154.198 120.561C154.112 120.563 154.026 120.546 153.946 120.511C153.866 120.477 153.793 120.426 153.732 120.362C153.671 120.298 153.623 120.221 153.591 120.137C153.558 120.053 153.542 119.963 153.543 119.872V116.872H150.464V119.872C150.445 120.042 150.368 120.199 150.246 120.313C150.124 120.427 149.967 120.49 149.805 120.49C149.642 120.49 149.485 120.427 149.363 120.313C149.242 120.199 149.164 120.042 149.145 119.872V119.853Z"
     fill="white"
     id="path198" />
  <path
     d="M157.065 112.494C157.064 112.403 157.08 112.313 157.112 112.229C157.145 112.144 157.193 112.068 157.254 112.004C157.315 111.939 157.388 111.889 157.468 111.854C157.548 111.82 157.633 111.803 157.72 111.805C157.894 111.804 158.062 111.877 158.186 112.006C158.31 112.135 158.381 112.31 158.383 112.494V119.872C158.381 120.056 158.31 120.231 158.186 120.36C158.062 120.489 157.894 120.561 157.72 120.561C157.633 120.563 157.548 120.546 157.468 120.511C157.388 120.477 157.315 120.426 157.254 120.362C157.193 120.298 157.145 120.221 157.112 120.137C157.08 120.053 157.064 119.963 157.065 119.872V112.494Z"
     fill="white"
     id="path199" />
  <path
     d="M160.233 116.053C160.238 115.45 160.358 114.854 160.584 114.3C160.81 113.746 161.139 113.244 161.55 112.825C161.962 112.406 162.448 112.076 162.982 111.856C163.515 111.637 164.084 111.53 164.657 111.544C165.633 111.527 166.586 111.855 167.365 112.475C167.446 112.529 167.515 112.599 167.568 112.682C167.621 112.765 167.657 112.859 167.674 112.958C167.691 113.057 167.687 113.158 167.664 113.256C167.642 113.353 167.599 113.444 167.541 113.523C167.483 113.602 167.409 113.668 167.325 113.715C167.241 113.763 167.149 113.791 167.054 113.799C166.959 113.806 166.863 113.792 166.774 113.759C166.684 113.725 166.602 113.672 166.533 113.603C165.994 113.17 165.335 112.935 164.657 112.932C164.259 112.927 163.864 113.007 163.496 113.167C163.128 113.327 162.794 113.564 162.516 113.863C162.234 114.14 162.009 114.474 161.855 114.846C161.702 115.218 161.622 115.619 161.622 116.025C161.622 116.43 161.702 116.831 161.855 117.203C162.009 117.575 162.234 117.91 162.516 118.186C162.794 118.486 163.128 118.723 163.496 118.883C163.864 119.043 164.259 119.123 164.657 119.118C165.23 119.111 165.791 118.948 166.285 118.642V116.928H164.586C164.407 116.928 164.235 116.854 164.108 116.722C163.98 116.589 163.907 116.409 163.905 116.22C163.905 116.127 163.923 116.034 163.957 115.947C163.991 115.861 164.042 115.782 164.105 115.716C164.168 115.651 164.244 115.599 164.326 115.564C164.409 115.529 164.497 115.511 164.586 115.512H166.949C167.039 115.51 167.128 115.526 167.212 115.561C167.295 115.595 167.372 115.647 167.436 115.713C167.5 115.779 167.551 115.858 167.586 115.945C167.621 116.032 167.639 116.126 167.639 116.22V119.015C167.645 119.086 167.645 119.158 167.639 119.229C167.636 119.251 167.636 119.273 167.639 119.295C167.598 119.419 167.517 119.525 167.409 119.593C166.766 120.102 166.002 120.417 165.201 120.503C164.4 120.59 163.592 120.445 162.864 120.083C162.136 119.722 161.515 119.158 161.068 118.453C160.622 117.748 160.367 116.927 160.33 116.081L160.233 116.053Z"
     fill="white"
     id="path200" />
  <path
     d="M169.745 119.853V112.494C169.744 112.403 169.76 112.313 169.793 112.229C169.825 112.144 169.873 112.068 169.934 112.004C169.995 111.939 170.068 111.889 170.148 111.854C170.228 111.82 170.314 111.803 170.4 111.805C170.574 111.804 170.742 111.877 170.866 112.006C170.99 112.135 171.061 112.31 171.064 112.494V115.494H174.134V112.494C174.153 112.324 174.23 112.167 174.352 112.053C174.474 111.939 174.631 111.876 174.793 111.876C174.956 111.876 175.113 111.939 175.235 112.053C175.356 112.167 175.434 112.324 175.453 112.494V119.872C175.434 120.042 175.356 120.199 175.235 120.313C175.113 120.427 174.956 120.49 174.793 120.49C174.631 120.49 174.474 120.427 174.352 120.313C174.23 120.199 174.153 120.042 174.134 119.872V116.872H171.064V119.872C171.064 119.963 171.046 120.054 171.013 120.138C170.98 120.222 170.93 120.299 170.869 120.363C170.807 120.427 170.734 120.477 170.653 120.511C170.573 120.546 170.487 120.562 170.4 120.561C170.312 120.563 170.225 120.545 170.144 120.51C170.063 120.474 169.989 120.422 169.928 120.356C169.866 120.289 169.819 120.211 169.787 120.124C169.756 120.038 169.742 119.946 169.745 119.853Z"
     fill="white"
     id="path201" />
  <path
     d="M181.47 118.363C181.577 118.228 181.73 118.144 181.896 118.128C182.062 118.112 182.227 118.167 182.355 118.279C182.997 118.841 183.795 119.168 184.629 119.211C185.156 119.217 185.674 119.059 186.115 118.754C186.266 118.655 186.392 118.518 186.48 118.356C186.568 118.193 186.616 118.01 186.62 117.823C186.621 117.681 186.584 117.542 186.514 117.422C186.424 117.271 186.303 117.144 186.16 117.049C185.656 116.751 185.104 116.552 184.532 116.463C184.003 116.37 183.488 116.204 183.001 115.969C182.556 115.774 182.173 115.451 181.895 115.037C181.714 114.73 181.619 114.374 181.62 114.013C181.625 113.644 181.715 113.282 181.881 112.958C182.048 112.633 182.286 112.356 182.576 112.149C183.177 111.707 183.895 111.476 184.629 111.488C185.568 111.54 186.472 111.887 187.222 112.485C187.288 112.532 187.344 112.592 187.388 112.662C187.432 112.732 187.462 112.81 187.477 112.892C187.491 112.975 187.491 113.059 187.474 113.141C187.458 113.223 187.426 113.301 187.381 113.37C187.339 113.442 187.283 113.504 187.217 113.553C187.151 113.601 187.077 113.635 186.998 113.653C186.92 113.67 186.839 113.671 186.76 113.654C186.681 113.637 186.606 113.604 186.54 113.556C185.995 113.092 185.328 112.812 184.629 112.755C184.155 112.747 183.69 112.897 183.302 113.183C183.167 113.263 183.055 113.378 182.976 113.516C182.897 113.655 182.854 113.813 182.85 113.975C182.841 114.096 182.868 114.217 182.93 114.32C183.016 114.449 183.124 114.559 183.248 114.646C183.706 114.929 184.21 115.115 184.735 115.196C185.299 115.302 185.849 115.481 186.372 115.727C186.856 115.94 187.268 116.3 187.558 116.761C187.746 117.08 187.847 117.447 187.85 117.823C187.838 118.208 187.738 118.585 187.56 118.923C187.381 119.26 187.129 119.547 186.823 119.76C186.183 120.24 185.414 120.491 184.629 120.478C183.511 120.418 182.443 119.976 181.585 119.22C181.474 119.113 181.402 118.97 181.381 118.813C181.36 118.657 181.391 118.498 181.47 118.363Z"
     fill="white"
     id="path202" />
  <path
     d="M189.292 116.043C189.313 114.841 189.782 113.695 190.598 112.853C191.414 112.012 192.512 111.541 193.654 111.544C194.642 111.523 195.608 111.851 196.398 112.475C196.534 112.597 196.621 112.768 196.642 112.955C196.664 113.141 196.617 113.329 196.513 113.482C196.401 113.628 196.24 113.723 196.064 113.747C195.888 113.771 195.709 113.723 195.566 113.612C195.023 113.158 194.347 112.917 193.654 112.932C192.854 112.944 192.088 113.277 191.513 113.863C190.957 114.439 190.639 115.222 190.628 116.043C190.631 116.449 190.711 116.85 190.863 117.223C191.015 117.595 191.236 117.932 191.513 118.214C192.088 118.8 192.854 119.133 193.654 119.145C194.348 119.154 195.023 118.91 195.566 118.456C195.712 118.353 195.89 118.31 196.065 118.335C196.239 118.361 196.399 118.454 196.513 118.596C196.617 118.746 196.663 118.933 196.642 119.118C196.62 119.303 196.533 119.473 196.398 119.593C195.608 120.217 194.642 120.545 193.654 120.524C192.514 120.529 191.418 120.062 190.602 119.224C189.786 118.386 189.315 117.243 189.292 116.043Z"
     fill="white"
     id="path203" />
  <path
     d="M198.822 119.853V112.494C198.821 112.403 198.837 112.313 198.87 112.229C198.902 112.144 198.95 112.068 199.011 112.004C199.072 111.939 199.145 111.889 199.225 111.854C199.305 111.82 199.391 111.803 199.477 111.805C199.564 111.803 199.65 111.82 199.73 111.854C199.811 111.888 199.884 111.939 199.946 112.003C200.007 112.067 200.057 112.144 200.09 112.228C200.123 112.312 200.141 112.403 200.141 112.494V115.494H203.22V112.494C203.219 112.403 203.235 112.313 203.267 112.229C203.3 112.144 203.348 112.068 203.409 112.004C203.47 111.939 203.543 111.889 203.623 111.854C203.703 111.82 203.789 111.803 203.875 111.805C204.049 111.804 204.217 111.877 204.341 112.006C204.465 112.135 204.536 112.31 204.538 112.494V119.872C204.538 119.963 204.521 120.054 204.488 120.138C204.454 120.222 204.405 120.299 204.344 120.363C204.282 120.427 204.209 120.477 204.128 120.511C204.048 120.546 203.962 120.562 203.875 120.561C203.789 120.563 203.703 120.546 203.623 120.511C203.543 120.477 203.47 120.426 203.409 120.362C203.348 120.298 203.3 120.221 203.267 120.137C203.235 120.053 203.219 119.963 203.22 119.872V116.872H200.141V119.872C200.142 119.964 200.125 120.055 200.092 120.139C200.059 120.224 200.01 120.301 199.948 120.366C199.886 120.43 199.813 120.48 199.732 120.514C199.651 120.548 199.564 120.564 199.477 120.561C199.389 120.563 199.302 120.545 199.221 120.51C199.14 120.474 199.066 120.422 199.005 120.356C198.944 120.289 198.896 120.211 198.864 120.124C198.833 120.038 198.819 119.946 198.822 119.853Z"
     fill="white"
     id="path204" />
  <path
     d="M213.449 112.876C214.216 113.734 214.646 114.865 214.653 116.043C214.653 117.22 214.222 118.351 213.449 119.201C213.09 119.62 212.652 119.956 212.163 120.187C211.674 120.418 211.145 120.539 210.609 120.543C210.062 120.541 209.522 120.421 209.021 120.19C208.52 119.96 208.07 119.623 207.697 119.201C206.932 118.349 206.51 117.217 206.521 116.043C206.513 114.868 206.935 113.734 207.697 112.876C208.07 112.456 208.521 112.121 209.022 111.891C209.522 111.662 210.063 111.544 210.609 111.544C211.144 111.546 211.673 111.666 212.162 111.895C212.651 112.125 213.089 112.459 213.449 112.876ZM213.299 116.043C213.296 115.232 213.006 114.452 212.485 113.854C212.244 113.576 211.951 113.354 211.624 113.202C211.297 113.049 210.944 112.971 210.587 112.971C210.229 112.971 209.876 113.049 209.549 113.202C209.222 113.354 208.929 113.576 208.689 113.854C208.16 114.447 207.869 115.231 207.874 116.043C207.865 116.851 208.158 117.631 208.689 118.214C208.926 118.497 209.218 118.725 209.545 118.88C209.873 119.036 210.228 119.116 210.587 119.116C210.946 119.116 211.301 119.036 211.628 118.88C211.955 118.725 212.247 118.497 212.485 118.214C213.009 117.626 213.3 116.85 213.299 116.043Z"
     fill="white"
     id="path205" />
  <path
     d="M223.43 112.876C224.198 113.734 224.628 114.865 224.634 116.043C224.634 117.22 224.203 118.351 223.43 119.201C223.071 119.62 222.633 119.956 222.144 120.187C221.655 120.418 221.126 120.539 220.59 120.543C220.045 120.54 219.506 120.42 219.007 120.189C218.507 119.959 218.058 119.622 217.688 119.201C216.919 118.351 216.497 117.217 216.511 116.043C216.5 114.867 216.922 113.732 217.688 112.876C218.059 112.456 218.508 112.122 219.007 111.893C219.507 111.663 220.045 111.545 220.59 111.544C221.125 111.546 221.654 111.666 222.143 111.895C222.632 112.125 223.071 112.459 223.43 112.876ZM223.28 116.043C223.281 115.233 222.994 114.452 222.475 113.854C222.233 113.576 221.94 113.353 221.612 113.201C221.284 113.049 220.93 112.97 220.572 112.97C220.214 112.97 219.86 113.049 219.533 113.201C219.205 113.353 218.911 113.576 218.67 113.854C218.148 114.45 217.86 115.233 217.865 116.043C217.857 116.849 218.145 117.627 218.67 118.214C218.908 118.498 219.201 118.725 219.529 118.88C219.857 119.036 220.213 119.117 220.572 119.117C220.932 119.117 221.288 119.036 221.616 118.88C221.944 118.725 222.236 118.498 222.475 118.214C222.996 117.625 223.284 116.849 223.28 116.043Z"
     fill="white"
     id="path206" />
  <path
     d="M226.908 119.853V112.494C226.908 112.311 226.977 112.136 227.1 112.007C227.223 111.877 227.389 111.805 227.563 111.805C227.737 111.805 227.905 111.877 228.029 112.006C228.153 112.135 228.224 112.31 228.227 112.494V119.173H231.447C231.609 119.193 231.758 119.275 231.867 119.403C231.975 119.531 232.035 119.696 232.035 119.867C232.035 120.039 231.975 120.204 231.867 120.332C231.758 120.46 231.609 120.542 231.447 120.561H227.563C227.475 120.561 227.389 120.543 227.308 120.507C227.228 120.471 227.155 120.419 227.093 120.353C227.032 120.287 226.985 120.209 226.953 120.123C226.921 120.037 226.906 119.946 226.908 119.853Z"
     fill="white"
     id="path207" />
  <g
     opacity="0.5"
     id="g226">
    <path
       d="M28.4575 277.792H21.2723V280.4H28.4575V277.792Z"
       fill="#FFC727"
       id="path208" />
    <path
       d="M24.4491 283.698C22.3254 283.698 19.3788 283.8 17.2728 283.8H17.1931V281.005H17.3081C19.423 281.005 22.405 281.005 24.4845 281.061H24.5464V281.108L24.4845 283.726L24.4491 283.698ZM24.4491 283.698L24.396 281.108L24.4491 281.173C23.2545 281.173 22.0599 281.173 20.8653 281.173H17.2728L17.3789 281.052V283.67L17.2816 283.558C19.3434 283.558 22.3608 283.623 24.4579 283.67L24.4491 283.698Z"
       fill="#FFC727"
       id="path209" />
    <path
       d="M146.022 205.185C143.889 205.185 140.943 205.287 138.837 205.287H138.739V202.493H138.854C140.969 202.493 143.951 202.493 146.039 202.549H146.093V202.604L146.039 205.222L146.022 205.185ZM146.022 205.185L145.96 202.567L146.022 202.632C144.818 202.632 143.624 202.632 142.429 202.632H138.837L138.943 202.511V205.129L138.845 205.017C140.907 205.017 143.933 205.092 146.031 205.129L146.022 205.185Z"
       fill="#FFC727"
       id="path210" />
    <path
       d="M142.013 205.865H134.828V208.473H142.013V205.865Z"
       fill="#FFC727"
       id="path211" />
    <path
       d="M138.022 205.185C135.89 205.185 132.943 205.288 130.837 205.288H130.74V205.185V202.567V202.456H130.855C132.97 202.456 135.952 202.456 138.04 202.511H138.093V202.567L138.04 205.185H138.022ZM138.022 205.185L137.961 202.567L138.022 202.633C136.819 202.633 135.624 202.633 134.43 202.633H130.837L130.944 202.511V205.129L130.846 205.017C132.908 205.017 135.934 205.092 138.031 205.129L138.022 205.185Z"
       fill="#FFC727"
       id="path212" />
    <path
       d="M360.418 186.274C358.285 186.274 355.339 186.386 353.233 186.377H353.135V183.582H353.25C355.365 183.582 358.347 183.582 360.435 183.647H360.489V183.703L360.435 186.312L360.418 186.274ZM360.418 186.274L360.356 183.666L360.418 183.722H356.825H353.233L353.339 183.61V186.218L353.241 186.116C355.303 186.116 358.329 186.181 360.427 186.218L360.418 186.274Z"
       fill="#FFC727"
       id="path213" />
    <path
       d="M360.418 239.644C358.285 239.644 355.339 239.756 353.233 239.756H353.135V236.914H353.25C355.365 236.914 358.347 236.914 360.435 236.98H360.489V237.035L360.435 239.644H360.418ZM360.418 239.644L360.356 237.035L360.418 237.091L356.825 237.138H353.233L353.339 237.026V239.634L353.241 239.532C355.303 239.532 358.329 239.597 360.427 239.634L360.418 239.644Z"
       fill="#FFC727"
       id="path214" />
    <path
       d="M364.373 180.359H357.188V182.967H364.373V180.359Z"
       fill="#FFC727"
       id="path215" />
    <path
       d="M273.417 185.771H266.232V188.38H273.417V185.771Z"
       fill="#FFC727"
       id="path216" />
    <path
       d="M273.444 283.018C271.311 283.018 268.364 283.129 266.258 283.12H266.161V283.018V280.409V280.288H266.276C268.391 280.288 271.373 280.288 273.461 280.344H273.514V280.409L273.461 283.018H273.444ZM273.444 283.018L273.382 280.409L273.444 280.465C272.24 280.465 271.046 280.465 269.851 280.465H266.258L266.365 280.353V282.962L266.267 282.85C268.329 282.85 271.355 282.924 273.452 282.962L273.444 283.018Z"
       fill="#FFC727"
       id="path217" />
    <path
       d="M277.399 277.102H270.214V279.71H277.399V277.102Z"
       fill="#FFC727"
       id="path218" />
    <path
       d="M356.392 182.977C354.268 182.977 351.321 183.088 349.215 183.079H349.109V180.284H349.224C351.339 180.284 354.321 180.284 356.4 180.34H356.462V180.396L356.4 183.005L356.392 182.977ZM356.392 182.977L356.339 180.368L356.392 180.424L352.808 180.471H349.215L349.321 180.359V182.967L349.224 182.865C351.286 182.865 354.303 182.93 356.4 182.967L356.392 182.977Z"
       fill="#FFC727"
       id="path219" />
    <path
       d="M60.4103 210.439C58.2778 210.439 55.3311 210.551 53.2251 210.551H53.1278V207.756H53.2428C55.3577 207.756 58.3397 207.756 60.428 207.812H60.4811V207.868L60.428 210.476L60.4103 210.439ZM60.4103 210.439L60.3572 207.831L60.4103 207.887L56.8177 207.933H53.2251L53.3402 207.812V210.42L53.2428 210.318C55.3046 210.318 58.3309 210.383 60.428 210.42L60.4103 210.439Z"
       fill="#FFC727"
       id="path220" />
    <path
       d="M142.04 282.114C139.907 282.114 136.961 282.226 134.855 282.217H134.757V279.422H134.881C136.996 279.422 139.978 279.422 142.066 279.478H142.119V279.543L142.066 282.151L142.04 282.114ZM142.04 282.114L141.987 279.506L142.04 279.562L138.447 279.608H134.881L134.996 279.496V282.105L134.881 282.04C136.943 282.04 139.969 282.105 142.066 282.142L142.04 282.114Z"
       fill="#FFC727"
       id="path221" />
    <path
       d="M52.4111 210.439C50.2785 210.439 47.3319 210.551 45.2259 210.551H45.1285V207.756H45.2347C47.3496 207.756 50.3316 207.756 52.4199 207.812H52.473V207.868L52.4199 210.476L52.4111 210.439ZM52.4111 210.439L52.358 207.831L52.4111 207.887L48.8185 207.933H45.2259L45.3409 207.812V210.42L45.2436 210.318C47.3053 210.318 50.3316 210.383 52.4287 210.42L52.4111 210.439Z"
       fill="#FFC727"
       id="path222" />
    <path
       d="M244.243 255.387C242.119 255.387 239.164 255.49 237.066 255.49H236.96V252.695H237.075C239.19 252.695 242.163 252.695 244.252 252.751H244.314V252.807L244.252 255.424L244.243 255.387ZM244.243 255.387L244.19 252.769L244.243 252.835C243.048 252.835 241.854 252.835 240.65 252.835H237.111L237.217 252.713V255.331L237.12 255.219C239.181 255.219 242.199 255.294 244.296 255.331L244.243 255.387Z"
       fill="#FFC727"
       id="path223" />
    <path
       d="M244.243 148.229C242.119 148.229 239.164 148.341 237.066 148.332H236.96V145.537H237.075C239.19 145.537 242.163 145.537 244.252 145.593H244.314V145.649L244.252 148.257L244.243 148.229ZM244.243 148.229L244.19 145.621L244.243 145.677H240.65H237.111L237.217 145.565V148.173L237.12 148.071C239.181 148.071 242.199 148.136 244.296 148.173L244.243 148.229Z"
       fill="#FFC727"
       id="path224" />
    <path
       d="M248.251 148.909H241.066V151.518H248.251V148.909Z"
       fill="#FFC727"
       id="path225" />
    <path
       d="M87.9829 178.188H80.7977V180.797H87.9829V178.188Z"
       fill="#FFC727"
       id="path226" />
  </g>
  <path
     d="M0 312.437C122.113 311.868 259.126 311.868 381.257 312.437C259.144 313.014 122.13 313.014 0 312.437Z"
     fill="#263238"
     id="path227" />
  <path
     d="M0 389.571C122.113 389.002 259.126 388.993 381.257 389.571C259.144 390.148 122.13 390.139 0 389.571Z"
     fill="#263238"
     id="path228" />
  <path
     d="M375.239 305.45H6.0083V312.222H375.239V305.45Z"
     fill="#C7C7C7"
     id="path229" />
  <path
     d="M31.8997 305.45C32.4777 307.666 32.4777 310.006 31.8997 312.222C31.5886 311.125 31.4394 309.985 31.4572 308.841C31.4432 307.693 31.5923 306.55 31.8997 305.45Z"
     fill="#263238"
     id="path230" />
  <path
     d="M60.7554 305.45C61.0628 306.55 61.2119 307.693 61.1979 308.841C61.2157 309.985 61.0665 311.125 60.7554 312.222C60.1774 310.006 60.1774 307.666 60.7554 305.45Z"
     fill="#263238"
     id="path231" />
  <path
     d="M89.62 305.45C90.198 307.666 90.198 310.006 89.62 312.222C89.309 311.125 89.1597 309.985 89.1776 308.841C89.1635 307.693 89.3126 306.55 89.62 305.45Z"
     fill="#263238"
     id="path232" />
  <path
     d="M118.476 305.45C118.783 306.55 118.932 307.693 118.918 308.841C118.936 309.985 118.787 311.125 118.476 312.222C117.898 310.006 117.898 307.666 118.476 305.45Z"
     fill="#263238"
     id="path233" />
  <path
     d="M147.34 305.45C147.918 307.666 147.918 310.006 147.34 312.222C147.029 311.125 146.88 309.985 146.898 308.841C146.884 307.693 147.033 306.55 147.34 305.45Z"
     fill="#263238"
     id="path234" />
  <path
     d="M176.196 305.45C176.503 306.55 176.652 307.693 176.638 308.841C176.656 309.985 176.507 311.125 176.196 312.222C175.618 310.006 175.618 307.666 176.196 305.45Z"
     fill="#263238"
     id="path235" />
  <path
     d="M205.061 305.45C205.639 307.666 205.639 310.006 205.061 312.222C204.75 311.125 204.6 309.985 204.618 308.841C204.604 307.693 204.753 306.55 205.061 305.45Z"
     fill="#263238"
     id="path236" />
  <path
     d="M233.916 305.45C234.224 306.55 234.373 307.693 234.359 308.841C234.377 309.985 234.227 311.125 233.916 312.222C233.338 310.006 233.338 307.666 233.916 305.45Z"
     fill="#263238"
     id="path237" />
  <path
     d="M262.781 305.45C263.359 307.666 263.359 310.006 262.781 312.222C262.47 311.125 262.321 309.985 262.338 308.841C262.324 307.693 262.473 306.55 262.781 305.45Z"
     fill="#263238"
     id="path238" />
  <path
     d="M291.637 305.45C291.944 306.55 292.093 307.693 292.079 308.841C292.097 309.985 291.948 311.125 291.637 312.222C291.058 310.006 291.058 307.666 291.637 305.45Z"
     fill="#263238"
     id="path239" />
  <path
     d="M320.501 305.45C321.079 307.666 321.079 310.006 320.501 312.222C320.19 311.125 320.041 309.985 320.059 308.841C320.045 307.693 320.194 306.55 320.501 305.45Z"
     fill="#263238"
     id="path240" />
  <path
     d="M349.357 305.45C349.664 306.55 349.813 307.693 349.799 308.841C349.817 309.985 349.668 311.125 349.357 312.222C348.779 310.006 348.779 307.666 349.357 305.45Z"
     fill="#263238"
     id="path241" />
  <path
     d="M164.197 312.437H217.059L316.935 389.57H64.3834L164.197 312.437Z"
     fill="#EBEBEB"
     id="path242" />
  <path
     d="M47.6505 305.45C47.6505 305.45 46.9072 301.798 45.4206 301.23C43.934 300.661 43.0226 302.31 43.0226 302.31C43.0226 302.31 42.6775 298.808 40.5626 297.764C38.4478 296.721 36.8727 298.863 36.8727 298.863C36.8727 298.863 35.2534 294.429 32.3599 294.429C29.4663 294.429 28.0151 300.95 28.0151 300.95C28.0151 300.95 26.3073 299.022 24.5553 300.112C22.8032 301.202 22.7855 305.487 22.7855 305.487L47.6505 305.45Z"
     fill="#37474F"
     id="path243" />
  <path
     d="M294.388 305.45C294.388 305.45 293.645 301.798 292.159 301.23C290.672 300.661 289.769 302.31 289.769 302.31C289.769 302.31 289.415 298.808 287.309 297.764C285.203 296.721 283.62 298.863 283.62 298.863C283.62 298.863 282 294.429 279.107 294.429C276.213 294.429 274.753 300.95 274.753 300.95C274.753 300.95 273.054 299.022 271.302 300.112C269.55 301.202 269.532 305.487 269.532 305.487L294.388 305.45Z"
     fill="#455A64"
     id="path244" />
  <path
     d="M113.379 305.45H87.2308C87.2308 305.45 88.1157 301.574 89.8235 301.295C90.3455 301.246 90.8691 301.367 91.3245 301.64C91.7799 301.913 92.1453 302.325 92.372 302.823C92.372 302.823 92.2923 297.41 95.531 296.488C98.7696 295.566 101.477 300.345 101.477 300.345C101.477 300.345 103.513 297.625 106.273 297.792C109.034 297.96 109.751 302.45 109.751 302.45C109.751 302.45 112.264 300.913 113.379 305.45Z"
     fill="#37474F"
     id="path245" />
  <path
     d="M24.4137 305.45H10.6539C10.6539 305.45 10.6539 303.298 12.0343 302.72C12.4022 302.553 12.8116 302.517 13.201 302.616C13.5904 302.715 13.9386 302.944 14.1934 303.27C14.1934 303.27 14.742 299.301 17.2639 299.301C19.7858 299.301 20.9981 302.72 20.9981 302.72C21.212 302.394 21.512 302.14 21.8611 301.991C22.2102 301.842 22.5931 301.804 22.9625 301.882C24.3606 302.077 24.4137 305.45 24.4137 305.45Z"
     fill="#455A64"
     id="path246" />
  <path
     d="M124.174 305.45H110.415C110.415 305.45 110.415 303.298 111.795 302.72C112.163 302.553 112.572 302.517 112.962 302.616C113.351 302.715 113.699 302.944 113.954 303.27C113.954 303.27 114.512 299.301 117.033 299.301C119.555 299.301 120.723 302.72 120.723 302.72C120.937 302.394 121.237 302.14 121.586 301.991C121.935 301.842 122.318 301.804 122.688 301.882C124.121 302.077 124.174 305.45 124.174 305.45Z"
     fill="#455A64"
     id="path247" />
  <path
     d="M350.525 305.45H336.765C336.765 305.45 336.765 303.298 338.146 302.72C338.513 302.553 338.923 302.517 339.312 302.616C339.702 302.715 340.05 302.944 340.305 303.27C340.305 303.27 340.853 299.301 343.375 299.301C345.897 299.301 347.109 302.72 347.109 302.72C347.322 302.393 347.622 302.139 347.972 301.99C348.321 301.841 348.704 301.803 349.074 301.882C350.472 302.077 350.525 305.45 350.525 305.45Z"
     fill="#455A64"
     id="path248" />
  <path
     d="M370.603 305.45H347.915C347.915 305.45 347.968 301.9 350.198 300.95C350.804 300.682 351.476 300.628 352.115 300.796C352.753 300.964 353.322 301.345 353.737 301.882C353.737 301.882 354.622 295.361 358.807 295.361C362.993 295.361 364.948 300.95 364.948 300.95C365.301 300.412 365.795 299.993 366.371 299.747C366.946 299.5 367.577 299.436 368.187 299.562C370.514 299.879 370.603 305.45 370.603 305.45Z"
     fill="#37474F"
     id="path249" />
  <path
     d="M311.113 157.61C311.555 158.327 353.498 164.476 355.56 164.066C355.66 164.043 355.758 164.009 355.852 163.963C358.436 162.985 370.895 153.017 371.859 152.17C373.629 150.604 364.01 120.776 355.586 102.75C352.772 96.7412 347.941 91.422 346.578 89.7079C345.216 87.9938 319.147 84.8265 314.272 86.6058C312.192 87.3697 306.865 92.1114 306.644 93.0336C306.396 94.4123 310.67 156.883 311.113 157.61Z"
     fill="#455A64"
     id="path250" />
  <path
     d="M311.113 157.61C311.555 158.327 353.498 164.476 355.56 164.066C355.66 164.043 355.758 164.009 355.852 163.963C352.834 152.076 338.659 96.2942 338.154 95.8936C337.65 95.493 312.67 93.192 306.653 93.0989C306.396 94.4124 310.67 156.883 311.113 157.61Z"
     fill="#263238"
     id="path251" />
  <path
     d="M332.686 90.5557C333.137 90.1831 333.951 84.1838 333.287 82.9075C332.544 81.4729 322.465 81.1562 321.784 82.2461C321.103 83.3361 320.28 89.326 320.563 89.5682C320.846 89.8104 322.492 90.1924 322.757 89.8291C323.023 89.4658 323.439 84.4819 323.642 84.2397C323.846 83.9975 330.898 84.2397 331.111 84.603C331.323 84.9663 330.279 89.9874 330.544 90.1924C330.81 90.3973 332.208 90.919 332.686 90.5557Z"
     fill="#37474F"
     id="path252" />
  <path
     d="M333.774 137.059C333.774 137.059 313.316 245.233 311.856 253.217C311.546 255.024 312.741 351.907 312.741 351.907H274.691C274.691 351.907 271.045 267.283 272.921 251.298C274.797 235.312 297.928 137.031 297.928 137.031L333.774 137.059Z"
     fill="#F7A9A0"
     id="path253" />
  <path
     opacity="0.1"
     d="M333.783 137.06C333.783 137.06 323.828 189.712 317.307 224.254L297.839 137.06H333.783Z"
     fill="black"
     id="path254" />
  <path
     d="M284.982 191.146L325.412 196.261L333.774 137.06H297.884L284.982 191.146Z"
     fill="#37474F"
     id="path255" />
  <path
     d="M323.899 188.091C319.581 187.159 315.192 186.619 310.821 186.097C306.449 185.576 302.149 185.091 297.813 184.616C295.335 184.355 292.84 184.094 290.353 183.955C290.323 183.955 290.294 183.967 290.272 183.99C290.251 184.013 290.238 184.044 290.238 184.076C290.238 184.108 290.251 184.139 290.272 184.161C290.294 184.184 290.323 184.197 290.353 184.197C294.68 185.045 299.078 185.576 303.441 186.181C307.803 186.787 312.086 187.355 316.422 187.839C318.908 188.119 321.395 188.342 323.89 188.445C323.912 188.445 323.934 188.441 323.955 188.433C323.975 188.425 323.994 188.412 324.01 188.396C324.026 188.38 324.039 188.361 324.048 188.34C324.057 188.319 324.062 188.296 324.063 188.272C324.063 188.249 324.059 188.226 324.052 188.204C324.044 188.183 324.032 188.163 324.017 188.146C324.001 188.129 323.983 188.115 323.963 188.106C323.943 188.097 323.921 188.091 323.899 188.091Z"
     fill="#263238"
     id="path256" />
  <path
     d="M328.182 140.516C325.185 151.844 322.321 163.218 319.59 174.639C319.2 176.232 318.837 177.844 318.466 179.446C318.047 181.081 317.71 182.739 317.457 184.411C317.457 184.431 317.464 184.45 317.478 184.464C317.491 184.478 317.509 184.486 317.528 184.486C317.547 184.486 317.565 184.478 317.578 184.464C317.591 184.45 317.599 184.431 317.599 184.411C318.529 181.6 319.318 178.739 319.961 175.841C320.687 173.046 321.377 170.177 322.076 167.336C323.465 161.662 324.855 155.98 326.164 150.279C326.908 147.037 327.648 143.786 328.385 140.525C328.421 140.441 328.226 140.376 328.182 140.516Z"
     fill="#263238"
     id="path257" />
  <path
     d="M246.579 389.076C248.676 389.812 308.635 389.626 310.918 388.145C311.803 387.577 312.272 378.373 312.555 367.25C312.617 364.846 312.661 362.368 312.697 359.844C312.741 356.854 312.785 353.835 312.803 350.901C312.874 337.719 312.422 326.112 312.422 326.112H273.665V350.901V359.844L273.868 367.25C273.868 367.25 250.941 378.131 248.614 380.096C246.287 382.062 244.491 388.35 246.579 389.076Z"
     fill="#F7A9A0"
     id="path258" />
  <path
     d="M246.579 389.077C248.676 389.812 308.635 389.626 310.918 388.145C311.803 387.577 312.272 378.373 312.555 367.25C312.617 364.846 312.661 362.368 312.696 359.844C312.741 356.854 312.785 353.835 312.803 350.901H273.682V359.844L273.886 367.25C273.886 367.25 250.959 378.131 248.632 380.096C246.304 382.062 244.49 388.35 246.579 389.077Z"
     fill="#DBDBDB"
     id="path259" />
  <path
     d="M246.375 389.17C247.747 389.645 273.284 389.738 291.875 389.337C296.185 389.235 300.114 389.114 303.29 388.965C307.662 388.76 310.599 388.508 311.077 388.182C312.13 387.474 312.635 373.966 312.847 359.723H273.665L273.868 367.175C273.868 367.175 250.817 378.112 248.472 380.087C246.128 382.062 244.296 388.424 246.375 389.17Z"
     fill="#FFC727"
     id="path260" />
  <path
     d="M247.26 386.627C257.374 386.338 298.158 386.161 308.166 386.682C308.246 386.682 308.246 386.748 308.166 386.748C298.158 387.269 257.374 387.092 247.26 386.804C247.039 386.794 247.039 386.636 247.26 386.627Z"
     fill="#263238"
     id="path261" />
  <path
     d="M272.435 364.818C276.408 364.017 281.284 364.651 284.327 367.613C284.443 367.725 284.283 367.902 284.159 367.865C280.354 366.584 276.429 365.735 272.452 365.331C272.395 365.322 272.343 365.292 272.305 365.247C272.266 365.201 272.244 365.143 272.242 365.082C272.24 365.022 272.258 364.962 272.293 364.914C272.328 364.866 272.378 364.832 272.435 364.818Z"
     fill="#263238"
     id="path262" />
  <path
     d="M269.568 366.644C273.55 365.853 278.417 366.477 281.461 369.439C281.576 369.56 281.461 369.737 281.292 369.691C277.487 368.412 273.562 367.566 269.586 367.166C269.53 367.153 269.481 367.121 269.445 367.075C269.409 367.029 269.388 366.972 269.386 366.912C269.384 366.853 269.401 366.794 269.434 366.746C269.467 366.697 269.514 366.662 269.568 366.644Z"
     fill="#263238"
     id="path263" />
  <path
     d="M266.727 368.47C270.7 367.679 275.576 368.312 278.611 371.265C278.726 371.377 278.611 371.554 278.443 371.507C274.634 370.234 270.706 369.394 266.727 369.001C266.669 368.99 266.615 368.957 266.577 368.908C266.539 368.86 266.518 368.799 266.518 368.736C266.518 368.673 266.539 368.612 266.577 368.563C266.615 368.515 266.669 368.482 266.727 368.47Z"
     fill="#263238"
     id="path264" />
  <path
     d="M263.843 370.305C267.816 369.514 272.691 370.138 275.726 373.1C275.841 373.221 275.726 373.389 275.558 373.352C271.757 372.07 267.835 371.223 263.86 370.827C263.805 370.814 263.756 370.782 263.72 370.736C263.684 370.69 263.663 370.633 263.661 370.573C263.659 370.514 263.676 370.455 263.709 370.407C263.741 370.359 263.789 370.323 263.843 370.305Z"
     fill="#263238"
     id="path265" />
  <path
     d="M266.86 361.111C269.683 363.403 273.346 364.334 276.638 365.601C276.974 365.741 277.248 365.396 277.257 365.079C277.273 365.078 277.289 365.072 277.302 365.063C277.316 365.054 277.327 365.042 277.336 365.028C277.344 365.013 277.35 364.997 277.351 364.98C277.353 364.963 277.351 364.946 277.346 364.93C276.129 361.226 274.008 357.923 271.196 355.354C269.532 353.891 266.621 352.885 265.064 355.158C263.506 357.431 265.214 359.77 266.86 361.111ZM265.842 357.748C265.126 353.155 269.815 355.55 271.001 356.686C271.76 357.426 272.467 358.223 273.116 359.071C274.442 360.839 275.683 362.677 276.833 364.576C275.249 363.85 273.629 363.272 272.028 362.611C270.116 361.81 266.232 360.291 265.842 357.748Z"
     fill="#263238"
     id="path266" />
  <path
     d="M290.619 358.512C289.646 355.903 286.593 356.118 284.628 357.096C281.299 358.843 278.464 361.481 276.408 364.744C276.355 364.818 276.408 364.884 276.461 364.921C276.437 364.999 276.431 365.082 276.444 365.163C276.456 365.244 276.488 365.321 276.534 365.387C276.581 365.453 276.642 365.506 276.713 365.541C276.783 365.577 276.861 365.594 276.939 365.592C280.425 365.219 284.186 365.284 287.46 363.803C289.362 362.937 291.504 360.98 290.619 358.512ZM282.115 363.896C280.399 364.12 278.691 364.25 276.992 364.548C278.553 363.01 280.186 361.555 281.885 360.189C282.73 359.538 283.617 358.949 284.54 358.428C285.956 357.645 291.07 356.565 289.283 360.813C288.265 363.16 284.142 363.626 282.106 363.896H282.115Z"
     fill="#263238"
     id="path267" />
  <path
     opacity="0.1"
     d="M312.82 363.71C312.564 376.398 312.059 387.539 311.095 388.182C310.617 388.508 307.688 388.75 303.308 388.965C300.131 389.114 296.229 389.244 291.902 389.328C288.433 389.403 284.726 389.468 280.983 389.505L312.82 363.71Z"
     fill="black"
     id="path268" />
  <path
     d="M322.917 346.877L361.993 346.355C361.993 346.355 354.33 205.958 350.976 176.772C350.976 176.772 357.321 160.936 345.446 137.05H297.848C297.848 137.05 301.034 159.79 306.493 174.211C306.493 174.211 310.033 175.207 316.457 178.943L322.917 346.877Z"
     fill="#F7A9A0"
     id="path269" />
  <path
     d="M317.165 196.577H354.56L351.675 176.772C351.675 176.772 357.356 156.641 346.26 137.05H297.848C297.848 137.05 299.857 158.383 305.812 174.425L311.856 177.238L317.165 196.577Z"
     fill="#37474F"
     id="path270" />
  <path
     d="M311.856 177.238C311.803 176.987 311.316 176.996 311.36 177.238C313.334 188.939 316.44 194.603 316.67 195.134C316.67 195.208 316.794 195.208 316.811 195.134C317.006 194.584 312.741 182.101 311.856 177.238Z"
     fill="#263238"
     id="path271" />
  <path
     d="M304.688 173.605C308.976 175.25 313.121 177.282 317.077 179.679C317.106 179.697 317.129 179.727 317.139 179.762C317.149 179.797 317.147 179.834 317.133 179.867C317.119 179.901 317.094 179.927 317.062 179.942C317.03 179.957 316.995 179.96 316.962 179.949C312.785 178.086 308.529 176.222 304.458 174.126C304.399 174.09 304.355 174.032 304.334 173.963C304.314 173.895 304.318 173.82 304.347 173.755C304.376 173.69 304.427 173.638 304.49 173.61C304.553 173.582 304.624 173.58 304.688 173.605Z"
     fill="#263238"
     id="path272" />
  <path
     d="M303.361 143.45C303.361 143.301 303.626 143.273 303.626 143.45C303.626 148.353 303.859 153.253 304.326 158.132C304.52 160.395 306.255 172.906 309.98 171.993C310.608 171.844 310.927 171.192 311.024 170.205C311.008 168.909 310.841 167.62 310.528 166.367C310.113 163.749 309.776 161.122 309.564 158.476C309.132 153.553 309.182 148.596 309.714 143.683C309.714 143.648 309.727 143.615 309.751 143.591C309.774 143.566 309.805 143.553 309.838 143.553C309.871 143.553 309.903 143.566 309.926 143.591C309.949 143.615 309.962 143.648 309.962 143.683C309.848 150.513 310.227 157.343 311.095 164.112C311.564 167.363 313.112 172.264 309.883 172.767C306.653 173.27 304.458 165.072 304.06 162.827C303.031 156.427 302.796 149.914 303.361 143.45Z"
     fill="#263238"
     id="path273" />
  <path
     d="M309.883 172.31C310.227 173.154 310.522 174.019 310.768 174.9C311.004 175.583 311.12 176.306 311.113 177.033C311.108 177.062 311.094 177.089 311.075 177.11C311.055 177.131 311.03 177.146 311.002 177.152C310.975 177.158 310.946 177.155 310.92 177.144C310.894 177.133 310.872 177.114 310.856 177.089C310.458 176.454 310.159 175.756 309.971 175.021C309.688 174.22 309.387 173.419 309.086 172.608C309.049 172.497 309.055 172.375 309.103 172.268C309.151 172.161 309.237 172.079 309.343 172.04C309.449 172 309.565 172.007 309.666 172.057C309.767 172.108 309.845 172.199 309.883 172.31Z"
     fill="#263238"
     id="path274" />
  <path
     d="M344.596 158.756C341.057 158.383 337.446 158.43 334.181 156.771C330.916 155.113 328.748 151.778 327.102 148.453C326.059 146.393 325.271 144.202 324.757 141.932C324.757 141.829 324.58 141.857 324.589 141.932C324.723 144.056 325.208 146.14 326.023 148.089C326.758 150.013 327.696 151.844 328.819 153.548C329.868 155.168 331.243 156.526 332.845 157.526C334.49 158.455 336.295 159.026 338.154 159.203C340.322 159.454 342.509 159.454 344.676 159.203C344.732 159.192 344.782 159.157 344.814 159.108C344.847 159.058 344.859 158.997 344.848 158.937C344.838 158.878 344.805 158.826 344.758 158.791C344.711 158.757 344.652 158.745 344.596 158.756Z"
     fill="#263238"
     id="path275" />
  <path
     d="M349.428 180.918C348.936 179.106 348.584 177.255 348.375 175.384C348.277 173.521 349.259 171.928 349.746 170.214C351.817 163.544 350.976 156.24 348.72 149.775C347.373 146.088 345.745 142.521 343.853 139.109C343.809 139.016 343.685 139.109 343.729 139.193C346.817 145.527 349.543 152.3 350.144 159.464C350.468 162.908 350.168 166.385 349.259 169.711C348.808 171.285 347.941 172.804 347.817 174.462C347.822 176.217 348.082 177.96 348.587 179.632C349.038 181.7 350.419 188.016 351.02 190.075C351.073 190.252 351.374 190.215 351.348 190.019C351.056 188.175 349.826 182.837 349.428 180.918Z"
     fill="#263238"
     id="path276" />
  <path
     d="M352.118 191.435C347.693 191.1 343.269 191.1 338.898 191.146C334.526 191.193 330.182 191.258 325.828 191.361C323.333 191.417 320.829 191.472 318.342 191.659C318.174 191.659 318.183 191.892 318.342 191.901C322.766 192.19 327.191 192.152 331.553 192.19C335.916 192.227 340.269 192.19 344.632 192.19C347.136 192.143 349.622 192.041 352.118 191.826C352.167 191.826 352.214 191.806 352.249 191.769C352.284 191.732 352.303 191.683 352.303 191.631C352.303 191.579 352.284 191.529 352.249 191.492C352.214 191.456 352.167 191.435 352.118 191.435Z"
     fill="#263238"
     id="path277" />
  <path
     d="M295.415 388.778C297.512 389.533 357.462 389.971 359.763 388.471C360.648 387.912 361.205 378.717 361.595 367.595C361.683 365.191 361.754 362.713 361.807 360.189C361.887 357.208 361.949 354.18 361.993 351.246C362.04 342.578 361.449 333.919 360.223 325.348L323.058 326.047L322.846 350.836L322.775 359.779L322.908 367.185C322.908 367.185 299.901 377.832 297.53 379.77C295.158 381.708 293.336 388.033 295.415 388.778Z"
     fill="#F7A9A0"
     id="path278" />
  <path
     d="M295.415 388.778C297.512 389.533 357.462 389.971 359.763 388.471C360.648 387.912 361.205 378.718 361.595 367.595C361.683 365.191 361.754 362.713 361.807 360.189C361.887 357.208 361.949 354.18 361.993 351.246L322.881 350.836L322.811 359.779L322.943 367.185C322.943 367.185 299.937 377.833 297.565 379.77C295.194 381.708 293.336 388.033 295.415 388.778Z"
     fill="#DBDBDB"
     id="path279" />
  <path
     d="M295.238 388.872C296.601 389.356 322.129 389.719 340.729 389.505C345.03 389.459 348.968 389.375 352.144 389.263C356.569 389.095 359.462 388.872 359.94 388.564C361.002 387.856 361.63 374.358 362.011 360.124L322.784 359.714L322.917 367.166C322.917 367.166 299.76 377.861 297.397 379.854C295.034 381.848 293.141 388.108 295.238 388.872Z"
     fill="#FFC727"
     id="path280" />
  <path
     d="M296.114 386.375C306.228 386.189 347.012 386.44 357.02 387.064C357.099 387.064 357.099 387.13 357.02 387.13C347.003 387.549 306.219 386.943 296.114 386.552C295.928 386.505 295.928 386.375 296.114 386.375Z"
     fill="#263238"
     id="path281" />
  <path
     d="M321.501 364.781C325.483 364.036 330.35 364.716 333.367 367.716C333.482 367.837 333.323 368.004 333.19 367.967C329.401 366.646 325.488 365.756 321.519 365.312C321.459 365.303 321.405 365.272 321.365 365.225C321.325 365.178 321.302 365.117 321.3 365.054C321.298 364.991 321.317 364.929 321.354 364.879C321.39 364.83 321.442 364.795 321.501 364.781Z"
     fill="#263238"
     id="path282" />
  <path
     d="M318.616 366.588C322.598 365.834 327.465 366.514 330.482 369.514C330.597 369.635 330.438 369.812 330.314 369.765C326.522 368.444 322.606 367.554 318.634 367.11C318.568 367.113 318.504 367.087 318.456 367.04C318.408 366.993 318.38 366.928 318.377 366.859C318.375 366.789 318.399 366.722 318.444 366.671C318.488 366.621 318.551 366.591 318.616 366.588Z"
     fill="#263238"
     id="path283" />
  <path
     d="M315.74 368.386C319.722 367.632 324.589 368.312 327.598 371.321C327.713 371.433 327.554 371.61 327.43 371.563C323.637 370.245 319.721 369.358 315.749 368.917C315.69 368.907 315.637 368.875 315.598 368.827C315.559 368.779 315.537 368.719 315.536 368.656C315.535 368.593 315.554 368.531 315.592 368.482C315.629 368.433 315.682 368.399 315.74 368.386Z"
     fill="#263238"
     id="path284" />
  <path
     d="M312.856 370.184C316.838 369.43 321.704 370.11 324.713 373.119C324.828 373.23 324.713 373.407 324.545 373.361C320.752 372.043 316.837 371.156 312.865 370.715C312.806 370.705 312.752 370.673 312.713 370.625C312.674 370.577 312.652 370.517 312.651 370.454C312.65 370.391 312.67 370.329 312.707 370.28C312.745 370.231 312.797 370.197 312.856 370.184Z"
     fill="#263238"
     id="path285" />
  <path
     d="M315.962 361.027C318.758 363.347 322.421 364.316 325.695 365.62C326.032 365.76 326.306 365.424 326.324 365.098C326.34 365.099 326.357 365.094 326.372 365.086C326.387 365.077 326.399 365.065 326.408 365.05C326.417 365.035 326.422 365.018 326.423 365C326.423 364.982 326.42 364.965 326.412 364.949C325.228 361.235 323.138 357.913 320.351 355.317C318.705 353.836 315.802 352.792 314.219 355.047C312.635 357.301 314.334 359.667 315.962 361.027ZM314.971 357.646C314.307 353.053 318.97 355.494 320.147 356.64C320.896 357.392 321.593 358.198 322.236 359.052C323.545 360.833 324.768 362.683 325.899 364.595C324.324 363.85 322.704 363.254 321.112 362.574C319.209 361.763 315.342 360.179 314.971 357.646Z"
     fill="#263238"
     id="path286" />
  <path
     d="M339.738 358.67C338.791 356.053 335.73 356.23 333.756 357.189C330.408 358.902 327.548 361.514 325.465 364.763C325.412 364.837 325.465 364.902 325.518 364.93C325.495 365.008 325.489 365.091 325.501 365.172C325.514 365.253 325.544 365.329 325.589 365.395C325.635 365.461 325.695 365.515 325.764 365.553C325.833 365.59 325.91 365.61 325.987 365.61C329.474 365.275 333.243 365.378 336.526 363.934C338.446 363.086 340.623 361.148 339.738 358.67ZM331.182 364.017C329.465 364.222 327.757 364.334 326.049 364.614C327.677 363.142 329.226 361.605 330.987 360.301C331.834 359.66 332.72 359.082 333.641 358.568C335.057 357.804 340.181 356.77 338.367 361.008C337.34 363.3 333.217 363.719 331.182 364.017Z"
     fill="#263238"
     id="path287" />
  <path
     d="M302.255 65.2077C301.91 68.8222 301.556 72.446 301.37 76.0698C301.246 78.2869 301.264 80.4761 301.37 82.6746C302.101 83.4896 302.917 84.2146 303.803 84.8358C303.803 84.2769 303.759 83.718 303.741 83.1777C303.644 80.5506 303.742 77.9516 303.901 75.3339C303.901 75.2407 304.025 75.2687 304.025 75.3339C303.963 78.0354 304.095 80.7556 304.255 83.4571C304.255 84.044 304.343 84.6309 304.396 85.2085C305.246 85.7532 306.133 86.2296 307.051 86.6338C306.998 85.991 306.962 85.3482 306.918 84.7147C306.812 83.2335 306.741 81.743 306.706 80.2525C306.641 77.3148 306.735 74.3756 306.989 71.4492C306.989 71.3281 307.157 71.3654 307.148 71.4492C307.077 74.4675 307.095 77.5044 307.21 80.5227C307.272 81.948 307.343 83.3826 307.449 84.8079C307.502 85.4879 307.582 86.1773 307.644 86.8573C309.318 87.5399 311.044 88.0728 312.803 88.4503C317.82 89.5589 323.173 88.823 328.102 87.4629C332.433 86.3141 336.435 84.0765 339.765 80.9419C338.391 78.7509 337.325 76.3634 336.597 73.8527C336.601 73.8406 336.609 73.8302 336.62 73.8229C336.63 73.8156 336.642 73.8117 336.654 73.8117C336.667 73.8117 336.679 73.8156 336.689 73.8229C336.699 73.8302 336.707 73.8406 336.712 73.8527C337.42 75.4239 338.184 76.9765 339.004 78.5105C339.393 79.2185 339.818 79.8892 340.234 80.5786C340.278 80.5227 340.331 80.4761 340.375 80.4295C340.703 80.0942 341.039 79.7495 341.366 79.3675C340.568 77.9429 339.847 76.4718 339.207 74.9612C338.24 72.8461 337.453 70.6452 336.853 68.3844C336.853 68.2353 336.995 68.1515 337.057 68.2912C337.942 70.3779 338.827 72.4833 339.712 74.5513C340.366 76.0046 341.101 77.4113 341.791 78.8459C342.316 78.285 342.727 77.6176 343 76.8841C343.272 76.1506 343.4 75.3664 343.375 74.5793C343.153 73.2432 342.7 71.9613 342.039 70.7971C341.412 69.456 340.85 68.0816 340.358 66.6796C339.331 63.7917 336.225 41.3596 328.854 41.9558C328.854 41.8906 317.351 32.1184 310.582 37.8289C299.804 46.9024 298.043 73.0329 298.361 75.9673C298.583 78.1265 299.377 80.1765 300.653 81.8828C300.591 80.0196 300.653 78.1565 300.768 76.3586C301.032 72.6112 301.475 68.8802 302.096 65.1798C302.097 65.1688 302.101 65.1582 302.107 65.1487C302.112 65.1393 302.12 65.1311 302.128 65.1246C302.137 65.1181 302.147 65.1134 302.157 65.1109C302.167 65.1084 302.178 65.1081 302.189 65.1099C302.199 65.1117 302.209 65.1157 302.218 65.1216C302.227 65.1275 302.235 65.1353 302.241 65.1443C302.247 65.1534 302.252 65.1637 302.254 65.1746C302.256 65.1854 302.257 65.1967 302.255 65.2077Z"
     fill="#263238"
     id="path288" />
  <path
     d="M307.077 86.7548C298.99 94.4123 269.745 125.638 272.205 135.96C274.488 145.555 282.991 147.139 288.548 141.969C296.601 134.423 309.352 105.051 312.564 96.0239C315.616 87.4348 315.032 79.2277 307.077 86.7548Z"
     fill="#F7A9A0"
     id="path289" />
  <path
     d="M304.591 118.503L279.894 109.187C279.894 109.187 301.131 88.6181 308.998 84.4167C317.846 79.703 318.2 85.4973 315.342 94.9621C312.484 104.427 304.591 118.503 304.591 118.503Z"
     fill="#FFC727"
     id="path290" />
  <path
     d="M284.947 105.871C285.832 106.057 293.583 108.833 295.256 109.476C296.928 110.119 303.777 112.671 305.441 113.491C305.457 113.491 305.473 113.498 305.484 113.51C305.496 113.522 305.503 113.539 305.503 113.556C305.503 113.573 305.496 113.59 305.484 113.602C305.473 113.614 305.457 113.621 305.441 113.621C303.671 113.156 296.751 110.594 295.034 109.979C293.318 109.364 285.717 106.43 284.929 105.992C284.823 105.973 284.885 105.861 284.947 105.871Z"
     fill="#263238"
     id="path291" />
  <path
     opacity="0.1"
     d="M315.342 94.9525C312.484 104.417 304.591 118.503 304.591 118.503L288.424 112.401L315.395 83.0192C317.705 84.165 317.165 88.7763 315.342 94.9525Z"
     fill="black"
     id="path292" />
  <path
     d="M350.428 144.931L294.813 144.754L300.122 123.095C300.122 123.095 295.486 116.984 297.008 110.836C299.176 102.247 311.352 85.4786 312.387 84.5471C316.555 80.8208 323.2 80.6252 326.155 83.8205C343.782 102.871 350.428 144.931 350.428 144.931Z"
     fill="#FFC727"
     id="path293" />
  <path
     d="M316.377 118.084C313.776 118.338 311.197 118.799 308.661 119.462C307.405 119.807 306.175 120.217 304.945 120.655C304.334 120.869 303.715 121.065 303.096 121.251C302.451 121.475 301.782 121.613 301.105 121.661C301.043 121.661 301.052 121.763 301.105 121.763C301.745 121.791 302.387 121.773 303.025 121.707C303.64 121.629 304.249 121.505 304.848 121.335C306.122 120.999 307.387 120.599 308.661 120.245C311.228 119.537 313.803 118.82 316.413 118.307C316.441 118.302 316.466 118.286 316.483 118.261C316.499 118.237 316.506 118.206 316.501 118.177C316.497 118.147 316.481 118.121 316.458 118.103C316.435 118.086 316.406 118.079 316.377 118.084Z"
     fill="#263238"
     id="path294" />
  <path
     d="M322.828 120.459C320.682 120.237 318.525 120.141 316.369 120.17C315.289 120.17 314.218 120.273 313.148 120.394L311.617 120.58C311.051 120.664 310.502 120.822 309.936 120.887C309.882 120.887 309.882 120.999 309.936 120.99C310.466 120.943 311.006 120.99 311.537 120.99L313.148 120.934C314.227 120.934 315.298 120.878 316.377 120.832C318.528 120.738 320.669 120.673 322.819 120.664C322.943 120.645 322.934 120.468 322.828 120.459Z"
     fill="#263238"
     id="path295" />
  <path
     d="M325.297 91.4499C328.323 102.452 344.685 144.922 353.755 146.99C362.825 149.058 370.072 147.111 369.912 139.277C369.744 130.753 341.933 97.2536 335.615 90.2855C329.598 83.6154 322.324 80.6437 325.297 91.4499Z"
     fill="#F7A9A0"
     id="path296" />
  <path
     d="M331.509 118.95L357.029 112.55C357.029 112.55 338.075 89.6428 330.704 84.5471C322.395 78.8273 321.43 84.5471 323.288 94.2913C325.147 104.036 331.509 118.95 331.509 118.95Z"
     fill="#FFC727"
     id="path297" />
  <path
     d="M352.339 108.479C351.454 108.554 343.446 110.426 341.72 110.864C339.995 111.302 332.925 113.053 331.173 113.659C331.156 113.659 331.14 113.665 331.129 113.678C331.117 113.69 331.111 113.706 331.111 113.724C331.111 113.741 331.117 113.758 331.129 113.77C331.14 113.782 331.156 113.789 331.173 113.789C332.942 113.528 340.128 111.795 341.897 111.376C343.667 110.957 351.525 108.935 352.365 108.581C352.454 108.572 352.401 108.479 352.339 108.479Z"
     fill="#263238"
     id="path298" />
  <path
     d="M333.801 118.372C333.013 118.67 332.208 118.922 331.412 119.192L331.323 119.015C328.355 113.143 326.156 106.876 324.784 100.384L328.279 109.597C329.288 112.326 330.73 116.118 331.677 118.847L331.456 118.736C332.235 118.605 333.004 118.456 333.792 118.354L333.801 118.372Z"
     fill="#263238"
     id="path299" />
  <path
     d="M324.138 102.452C325.191 103.452 326.019 104.687 326.562 106.066C325.94 105.677 325.402 105.154 324.985 104.531C324.567 103.908 324.278 103.2 324.138 102.452Z"
     fill="#263238"
     id="path300" />
  <path
     d="M324.899 84.1651C324.536 85.2364 318.864 91.748 314.157 90.9655C312.617 90.714 313.573 81.8361 313.573 81.8361L313.502 81.1654L312.493 71.7566L323.465 66.0088L325.041 65.2635C325.041 65.2635 325.147 67.8533 325.262 71.0858C325.262 71.2349 325.262 71.3839 325.262 71.5423C325.262 71.7007 325.262 71.8963 325.262 72.0733C325.262 72.5484 325.306 73.0049 325.324 73.5359C325.341 74.0669 325.324 74.2718 325.324 74.6631C325.324 75.0543 325.324 75.4456 325.324 75.8368C325.361 78.6198 325.219 81.4023 324.899 84.1651Z"
     fill="#F7A9A0"
     id="path301" />
  <path
     d="M325.262 71.0858C324.114 73.5641 322.468 75.7496 320.437 77.4902C318.406 79.2309 316.04 80.485 313.502 81.1654L312.493 71.7566L323.465 66.0088L325.041 65.2635C325.041 65.2635 325.129 67.8533 325.262 71.0858Z"
     fill="#263238"
     id="path302" />
  <path
     d="M302.034 55.8735C299.096 72.2038 308.051 75.8929 311.396 76.5636C314.44 77.1598 324.846 78.8087 329.376 62.8882C333.907 46.9677 327.607 40.3629 320.74 38.6022C313.873 36.8415 304.972 39.5431 302.034 55.8735Z"
     fill="#F7A9A0"
     id="path303" />
  <path
     d="M307.246 53.2837C307.617 53.2837 307.962 53.2278 308.334 53.1906C308.72 53.2129 309.102 53.1017 309.422 52.8738C309.51 52.781 309.566 52.6605 309.582 52.5309C309.598 52.4013 309.573 52.2698 309.511 52.1565C309.356 51.953 309.152 51.7971 308.92 51.7053C308.688 51.6135 308.436 51.5892 308.192 51.6348C307.684 51.64 307.196 51.85 306.83 52.2217C306.748 52.309 306.693 52.4196 306.67 52.5397C306.648 52.6599 306.66 52.7843 306.704 52.8975C306.748 53.0107 306.823 53.1077 306.92 53.1764C307.016 53.245 307.129 53.2824 307.246 53.2837Z"
     fill="#263238"
     id="path304" />
  <path
     d="M318.209 55.333C317.863 55.2174 317.523 55.0806 317.192 54.9231C316.813 54.8294 316.474 54.6067 316.227 54.2897C316.169 54.1755 316.149 54.0447 316.168 53.917C316.187 53.7893 316.245 53.6716 316.333 53.5817C316.537 53.4315 316.775 53.3419 317.022 53.3222C317.27 53.3026 317.518 53.3536 317.74 53.4699C318.22 53.6252 318.631 53.9555 318.899 54.4015C318.962 54.5111 318.991 54.6381 318.984 54.7656C318.976 54.8932 318.932 55.0154 318.857 55.1161C318.783 55.2169 318.681 55.2915 318.565 55.3303C318.45 55.369 318.325 55.3699 318.209 55.333Z"
     fill="#263238"
     id="path305" />
  <path
     d="M315.316 58.8916C315.316 58.8916 315.395 58.9661 315.387 59.0034C315.192 60.1213 315.148 61.4348 316.05 61.9565C316.05 61.9565 316.05 62.031 316.05 62.0124C314.891 61.6584 314.962 59.9163 315.316 58.8916Z"
     fill="#263238"
     id="path306" />
  <path
     d="M316.431 57.8763C318.201 58.016 317.776 61.6025 316.174 61.5187C314.573 61.4349 314.988 57.7645 316.431 57.8763Z"
     fill="#263238"
     id="path307" />
  <path
     d="M317.094 58.1464C317.369 58.3886 317.625 58.7892 317.979 58.873C318.333 58.9568 318.749 58.6215 319.068 58.2861H319.121C319.059 58.9848 318.722 59.6648 318.006 59.6928C317.289 59.7207 316.953 59.0407 316.864 58.3141C316.855 58.2302 316.979 58.0532 317.094 58.1464Z"
     fill="#263238"
     id="path308" />
  <path
     d="M308.812 57.6714C308.812 57.6248 308.723 57.6714 308.723 57.7552C308.644 58.8918 308.378 60.168 307.37 60.4382V60.5034C308.573 60.4568 308.918 58.752 308.812 57.6714Z"
     fill="#263238"
     id="path309" />
  <path
     d="M307.98 56.3858C306.272 56.0598 305.777 59.6836 307.361 59.9817C308.945 60.2798 309.405 56.6653 307.98 56.3858Z"
     fill="#263238"
     id="path310" />
  <path
     d="M307.228 56.5161C306.927 56.6651 306.617 56.9725 306.29 56.9539C305.963 56.9353 305.679 56.4881 305.494 56.0782C305.494 56.0782 305.441 56.0782 305.432 56.0782C305.325 56.7676 305.432 57.5222 306.051 57.7458C306.671 57.9693 307.113 57.429 307.37 56.7583C307.431 56.6651 307.352 56.4602 307.228 56.5161Z"
     fill="#263238"
     id="path311" />
  <path
     d="M313.564 67.9558C313.289 68.198 313.015 68.5427 312.626 68.552C312.225 68.5153 311.837 68.3916 311.484 68.1887C311.484 68.1887 311.422 68.1887 311.44 68.2445C311.579 68.4762 311.775 68.6642 312.007 68.7888C312.239 68.9134 312.499 68.9699 312.758 68.9525C312.976 68.9037 313.175 68.7898 313.332 68.6245C313.489 68.4592 313.597 68.2496 313.643 68.021C313.688 67.9464 313.626 67.9185 313.564 67.9558Z"
     fill="#263238"
     id="path312" />
  <path
     d="M309.608 62.9067C309.608 62.9067 309.148 64.7698 309.051 65.6082C309.768 65.7786 310.513 65.7748 311.229 65.5973C311.945 65.4197 312.613 65.0731 313.183 64.5835C313.245 64.5183 313.183 64.4158 313.086 64.4531C312.063 65.0516 310.881 65.2776 309.723 65.0959C309.723 64.8723 310.511 62.2173 310.396 62.1894C309.801 62.1729 309.206 62.2355 308.626 62.3757C309.405 58.9196 310.697 55.6125 311.422 52.1284C311.425 52.1033 311.42 52.0778 311.408 52.0561C311.395 52.0345 311.376 52.018 311.353 52.0093C311.331 52.0006 311.306 52.0003 311.283 52.0084C311.26 52.0165 311.241 52.0326 311.228 52.0539C309.739 55.5489 308.583 59.1904 307.777 62.9253C307.67 63.4004 309.29 62.9998 309.608 62.9067Z"
     fill="#263238"
     id="path313" />
  <path
     d="M309.697 65.4592C310.084 66.1461 310.628 66.7195 311.281 67.1267C311.64 67.3313 312.052 67.4128 312.458 67.3596C313.342 67.2385 313.475 66.428 313.404 65.6734C313.365 65.2816 313.279 64.8966 313.148 64.5276C312.122 65.2184 310.912 65.5449 309.697 65.4592Z"
     fill="#263238"
     id="path314" />
  <path
     d="M311.281 67.1267C311.64 67.3314 312.052 67.4128 312.458 67.3596C313.343 67.2385 313.475 66.4281 313.404 65.6735C312.946 65.6257 312.486 65.7436 312.1 66.0077C311.714 66.2719 311.425 66.6665 311.281 67.1267Z"
     fill="#FF98B9"
     id="path315" />
  <path
     d="M328.306 61.9006C326.66 61.5839 322.89 56.2087 323.74 47.7315C323.74 47.7315 323.474 55.3983 323.89 56.5813C324.306 57.7644 321.784 53.5537 322.377 46.716C320.158 48.0019 317.773 48.9432 315.298 49.5107C312.13 50.0138 310.263 49.7436 310.068 49.5107C309.874 49.2778 314.555 48.337 315.944 47.0235C315.944 47.0235 307.343 49.9486 303.556 49.7623C303.122 49.7623 303.697 40.2882 309.962 37.0464C316.227 33.8045 324.908 39.3101 327.085 42.1327C327.085 42.1327 329.934 42.9432 332.553 47.8712C335.172 52.7992 330.084 62.2453 328.306 61.9006Z"
     fill="#263238"
     id="path316" />
  <path
     d="M322.315 45.8126C322.368 45.6356 322.643 45.6728 322.598 45.8685C322.029 48.9213 322.071 52.0656 322.722 55.1003C322.722 55.1003 322.66 55.1562 322.651 55.1003C321.793 51.9423 321.386 48.9892 322.315 45.8126Z"
     fill="#263238"
     id="path317" />
  <path
     d="M311.192 50.079C315.617 50.079 319.528 49.1475 322.864 45.9335C322.934 45.8683 323.05 45.9335 322.979 46.0453C320.129 49.6412 315.448 50.7032 311.183 50.256C311.095 50.284 311.095 50.079 311.192 50.079Z"
     fill="#263238"
     id="path318" />
  <path
     d="M325.793 63.1209C325.793 63.1209 329.713 58.3234 331.819 59.8418C333.925 61.3603 330.624 68.5706 327.908 69.3159C327.567 69.4394 327.207 69.489 326.848 69.4614C326.489 69.4338 326.14 69.3297 325.82 69.1555C325.501 68.9812 325.218 68.7404 324.99 68.4477C324.762 68.155 324.592 67.8165 324.492 67.4527L325.793 63.1209Z"
     fill="#F7A9A0"
     id="path319" />
  <path
     d="M330.819 61.91V61.9845C328.916 62.5714 327.775 64.2575 326.925 66.0368C327.051 65.8567 327.212 65.7071 327.397 65.5984C327.583 65.4896 327.788 65.4241 328 65.4064C328.211 65.3887 328.424 65.4193 328.623 65.4959C328.823 65.5725 329.004 65.6935 329.155 65.8505C329.199 65.8505 329.155 65.9623 329.102 65.953C328.79 65.8081 328.444 65.7698 328.11 65.8433C327.777 65.9168 327.474 66.0985 327.244 66.3629C326.863 66.8044 326.525 67.285 326.235 67.7975C326.138 67.9652 325.846 67.7975 325.925 67.6485C326.147 65.1425 328.288 61.8914 330.819 61.91Z"
     fill="#263238"
     id="path320" />
  <path
     d="M325.262 82.2834C320.625 86.4289 328.084 123.272 332.677 132.514C335.022 137.171 352.144 154.079 352.418 153.94C352.693 153.8 352.587 148.928 351.834 147.745C351.082 146.562 340.225 131.852 337.951 127.25C333.978 119.239 327.642 91.0681 328.845 83.0193C328.907 82.6187 325.766 81.8269 325.262 82.2834Z"
     fill="#263238"
     id="path321" />
  <path
     d="M368.488 139.752C371.337 146.953 362.435 150.055 357.489 148.397C345.87 144.531 327.465 132.793 319.882 124.465C317.439 121.782 334.429 102.964 337.809 104.744C341.331 106.616 362.692 125.154 368.488 139.752Z"
     fill="#F7A9A0"
     id="path322" />
  <path
     d="M320.625 86.4102C319.878 86.8026 319.263 87.4262 318.863 88.1972C318.463 88.9682 318.297 89.8498 318.386 90.7233C316.982 90.5307 315.558 90.8602 314.36 91.6549C312.316 93.164 313.661 97.1977 313.661 97.1977C312.164 97.3161 310.737 97.907 309.564 98.8932C307.75 100.542 308.555 104.827 308.555 104.827C307.226 105.75 306.26 107.151 305.839 108.768C304.848 113.072 309.299 118.083 312.44 120.822C316.192 124.12 326.881 130.678 328.819 132.048L346.826 112.494C346.826 112.494 337.907 94.7943 334.093 91.6083C330.872 88.9906 323.527 85.0408 320.625 86.4102Z"
     fill="#F7A9A0"
     id="path323" />
  <path
     d="M318.537 90.7141C322.598 92.6797 325.89 95.8004 329.341 98.7162C329.353 98.7211 329.363 98.7288 329.372 98.7388C329.38 98.7488 329.386 98.7608 329.389 98.7737C329.392 98.7867 329.392 98.8002 329.39 98.8132C329.387 98.8262 329.381 98.8383 329.373 98.8485C329.365 98.8587 329.354 98.8666 329.343 98.8718C329.331 98.8769 329.318 98.879 329.305 98.8779C329.293 98.8768 329.281 98.8725 329.27 98.8655C329.259 98.8584 329.25 98.8488 329.244 98.8373C325.846 95.8936 321.935 93.7044 318.422 90.9097C318.406 90.8902 318.397 90.866 318.395 90.8405C318.393 90.8151 318.399 90.7897 318.412 90.768C318.425 90.7464 318.444 90.7295 318.466 90.7198C318.488 90.7101 318.513 90.7081 318.537 90.7141Z"
     fill="#263238"
     id="path324" />
  <path
     d="M313.971 97.0301C314.854 97.572 315.666 98.2328 316.386 98.9957C317.192 99.7503 317.988 100.524 318.767 101.306C320.342 102.871 321.873 104.476 323.359 106.122C323.43 106.197 323.359 106.327 323.262 106.253C321.696 104.688 320.112 103.16 318.484 101.669C317.67 100.924 316.847 100.188 316.024 99.4522C315.205 98.8126 314.454 98.0817 313.785 97.2723C313.769 97.2431 313.763 97.2096 313.765 97.1762C313.768 97.1429 313.78 97.1111 313.8 97.085C313.82 97.059 313.847 97.0398 313.877 97.03C313.908 97.0202 313.94 97.0203 313.971 97.0301Z"
     fill="#263238"
     id="path325" />
  <path
     d="M308.617 104.902C309.407 105.396 310.113 106.026 310.706 106.765L312.82 108.945C314.236 110.389 315.652 111.823 317.112 113.211C317.183 113.286 317.112 113.407 317.015 113.342C315.519 111.935 314.015 110.547 312.528 109.14C311.803 108.442 311.077 107.743 310.36 107.035C309.645 106.456 309.031 105.75 308.547 104.948C308.547 104.94 308.55 104.932 308.554 104.925C308.559 104.918 308.564 104.912 308.571 104.907C308.578 104.903 308.586 104.9 308.594 104.899C308.602 104.898 308.61 104.899 308.617 104.902Z"
     fill="#263238"
     id="path326" />
  <path
     d="M364.683 132.7C360.444 127.045 356.161 121.018 351.056 116.22C356.816 120.366 361.152 126.467 364.683 132.7Z"
     fill="#263238"
     id="path327" />
  <path
     d="M326.784 87.3418C323.315 85.6184 318.076 85.4787 318.519 90.9004C316.979 90.8072 315.041 91.0029 314.095 92.3723C313.148 93.7417 313.634 95.9402 314.095 97.5425H313.67C309.086 97.8778 308.361 100.896 309.077 105.125C308.415 105.486 307.829 105.984 307.355 106.589C306.88 107.194 306.527 107.894 306.317 108.647C304.653 117.441 320.873 126.635 326.934 130.809C321.554 127.991 316.46 124.605 311.732 120.701C307.352 116.975 301.591 108.963 308.449 104.501L308.219 104.976C307.841 103.063 308.029 101.073 308.759 99.2752C309.812 97.4959 311.82 96.9742 313.661 96.8717L313.36 97.3189C313.114 96.457 312.98 95.5638 312.962 94.6639C312.785 91.2916 315.696 90.2297 318.404 90.6023L318.271 90.742C318.05 85.1992 323.262 85.46 326.784 87.3139V87.3418Z"
     fill="#263238"
     id="path328" />
  <path
     d="M344.189 139.901L338.022 96.6107L331.783 97.4212L337.942 140.711L344.189 139.901Z"
     fill="#37474F"
     id="path329" />
  <path
     d="M337.942 140.711L331.783 97.4213L315.493 99.5452L321.66 142.835L337.942 140.711Z"
     fill="#455A64"
     id="path330" />
  <path
     d="M343.534 135.308L342.959 131.275L336.712 132.085L337.287 136.119L343.534 135.308Z"
     fill="#455A64"
     id="path331" />
  <path
     d="M342.588 128.619L342.357 127.064L336.119 127.874L336.34 129.439L342.588 128.619Z"
     fill="#455A64"
     id="path332" />
  <path
     d="M334.854 142.155L328.226 95.642L320.422 96.6574L327.049 143.18L334.854 142.155Z"
     fill="#C7C7C7"
     id="path333" />
  <path
     d="M329.288 103.057L328.642 98.5392L320.837 99.5546L321.483 104.082L329.288 103.057Z"
     fill="#FFC727"
     id="path334" />
  <path
     d="M329.792 106.625L329.527 104.734L321.722 105.759L321.988 107.64L329.792 106.625Z"
     fill="#FFC727"
     id="path335" />
  <path
     d="M334.048 136.501L333.402 131.973L325.598 132.998L326.244 137.516L334.048 136.501Z"
     fill="#FFC727"
     id="path336" />
  <path
     d="M312.298 145.146L327.049 143.217L320.421 96.6575L305.671 98.5858L312.298 145.146Z"
     fill="#EBEBEB"
     id="path337" />
  <path
     d="M325.456 142.696L319.342 99.7502L312.856 100.598L318.97 143.543L325.456 142.696Z"
     fill="#455A64"
     id="path338" />
  <path
     d="M318.97 143.543L312.856 100.598L296.406 102.741L302.52 145.686L318.97 143.543Z"
     fill="#37474F"
     id="path339" />
  <path
     d="M324.784 142.779L318.669 99.834L313.528 100.505L319.643 143.45L324.784 142.779Z"
     fill="white"
     id="path340" />
  <path
     d="M314.979 103.178C317.112 116.09 319.138 130.343 320.696 143.338C318.563 130.436 316.537 116.183 314.979 103.178Z"
     fill="#DBDBDB"
     id="path341" />
  <path
     d="M315.988 103.02C318.121 115.932 320.147 130.185 321.705 143.18C319.572 130.278 317.546 116.015 315.988 103.02Z"
     fill="#DBDBDB"
     id="path342" />
  <path
     d="M316.997 102.89C319.129 115.801 321.156 130.054 322.713 143.049C320.581 130.138 318.554 115.885 316.997 102.89Z"
     fill="#DBDBDB"
     id="path343" />
  <path
     d="M318.05 102.759C320.183 115.661 322.209 129.924 323.766 142.919C321.634 130.008 319.607 115.755 318.05 102.759Z"
     fill="#DBDBDB"
     id="path344" />
  <path
     d="M276.16 142.761C269.869 138.392 275.7 129.532 280.77 128.051C292.672 124.558 312.396 124.977 323.297 127.558C326.837 128.387 326.89 152.477 323.076 152.952C319.076 153.483 288.92 151.62 276.16 142.761Z"
     fill="#F7A9A0"
     id="path345" />
  <path
     d="M345.18 122.853C345.524 123.616 345.637 124.472 345.504 125.305C345.371 126.138 344.999 126.908 344.437 127.511C345.608 128.24 346.5 129.377 346.959 130.725C347.667 133.147 344.366 135.383 344.366 135.383C345.431 136.407 346.18 137.744 346.516 139.221C346.959 141.615 343.941 144.344 343.941 144.344C344.435 145.863 344.387 147.518 343.809 149.002C342.127 152.887 335.951 153.884 332.022 154.005C327.315 154.163 315.537 152.458 313.289 152.272L310.635 126.291C310.635 126.291 327.377 118.437 332.04 118.437C335.978 118.382 343.764 119.947 345.18 122.853Z"
     fill="#F7A9A0"
     id="path346" />
  <path
     d="M344.34 127.399C340.163 126.347 335.907 126.654 331.65 126.71C331.562 126.71 331.562 126.859 331.65 126.859C335.88 126.756 340.083 127.539 344.313 127.614C344.336 127.61 344.358 127.599 344.374 127.582C344.391 127.564 344.401 127.542 344.405 127.517C344.408 127.493 344.403 127.468 344.391 127.447C344.379 127.425 344.361 127.409 344.34 127.399Z"
     fill="#263238"
     id="path347" />
  <path
     d="M344.233 135.029C343.261 134.893 342.276 134.893 341.304 135.029C340.269 135.094 339.234 135.187 338.198 135.289C336.128 135.494 334.066 135.746 332.004 136.072C331.916 136.072 331.916 136.23 332.004 136.221C334.066 136.025 336.128 135.848 338.198 135.746C339.234 135.69 340.269 135.643 341.313 135.606C342.292 135.635 343.272 135.55 344.233 135.355C344.274 135.355 344.314 135.337 344.343 135.307C344.372 135.276 344.388 135.235 344.388 135.192C344.388 135.148 344.372 135.107 344.343 135.076C344.314 135.046 344.274 135.029 344.233 135.029Z"
     fill="#263238"
     id="path348" />
  <path
     d="M343.853 144.335C342.968 144.218 342.07 144.262 341.198 144.465L338.367 144.792C336.482 144.996 334.597 145.201 332.712 145.341C332.697 145.347 332.683 145.358 332.674 145.372C332.664 145.386 332.659 145.403 332.659 145.42C332.659 145.438 332.664 145.455 332.674 145.469C332.683 145.483 332.697 145.494 332.712 145.5C334.633 145.369 336.553 145.267 338.473 145.118L341.305 144.885C342.17 144.895 343.031 144.74 343.844 144.428C343.856 144.429 343.868 144.426 343.877 144.418C343.886 144.41 343.892 144.399 343.893 144.386C343.894 144.374 343.89 144.362 343.883 144.352C343.875 144.342 343.865 144.336 343.853 144.335Z"
     fill="#263238"
     id="path349" />
  <path
     d="M277.877 129.616C282.788 126.393 288.805 126.16 294.415 125.657C300.025 125.154 305.812 125.219 311.511 125.415C316.82 122.825 324.049 119.332 330.491 118.037C332.228 117.925 333.971 118.075 335.668 118.484C338.986 119.22 342.747 119.798 345.198 122.471C345.767 123.262 346.023 124.255 345.911 125.24C345.798 126.225 345.327 127.126 344.596 127.753V127.241C346.879 128.359 348.374 131.777 346.366 133.892C345.82 134.542 345.174 135.09 344.454 135.513V135.243C346.569 137.553 347.56 140.264 345.215 142.872C347.445 140.162 346.295 137.525 344.083 135.336C344.821 134.888 345.48 134.308 346.03 133.622C347.87 131.479 346.092 128.433 343.879 127.567L344.26 127.259C349.242 121.009 335.411 119.117 331.774 118.81C328.058 119.043 324.527 120.766 320.988 122.071C317.776 123.337 314.617 124.865 311.458 126.244C305.786 126.048 300.087 125.983 294.415 126.244C288.743 126.505 282.912 126.663 277.85 129.626L277.877 129.616Z"
     fill="#263238"
     id="path350" />
</svg>
